<?xml version="1.0" encoding="UTF-8"?>
<svg id="Layer_1" data-name="Layer 1" xmlns="http://www.w3.org/2000/svg" viewBox="0 0 903.28 767.3">
  <defs>
    <style>
      .cls-1 {
        fill: none;
        stroke: #000;
        stroke-miterlimit: 10;
        stroke-width: .5px;
      }
    </style>
  </defs>
  <path class="cls-1" d="M290.24,748.37l6.23-179.34c0-2.49-7.47-7.47-7.47-7.47l1.25-3.74s1.25-28.64,1.25-31.14,1.25-4.98,2.49-4.98,8.72-6.23,7.47-7.47c-.78-.78-.58-2.05-.33-2.89.27-.89.43-1.8.51-2.73.29-3.3.74-9.97-.18-11.82-1.25-2.49-3.74-3.74-3.74-3.74-7.47-2.49-4.98-9.96-4.98-9.96l1.1-12.12c.08-.91.73-1.67,1.62-1.89,4.48-1.13,6.88-3.63,7.89-4.99.39-.52.62-1.13.66-1.78.25-3.52,1.18-16.75,1.18-17.83,0-.82-.54-2.72-.91-3.92-.24-.78.04-1.62.72-2.08,2.63-1.78,9.11-3.81,12.2-4.72.99-.29,1.96-.64,2.91-1.05,2.76-1.21,5.03-1.66,6.33-1.83.76-.1,1.41-.57,1.76-1.25l1.56-3.11c.21-.41.24-.9.08-1.33-.37-.99-.32-1.75-.17-2.27s.59-.87,1.11-.97c5.95-1.14,9.38-3.84,10.3-4.64.16-.14.3-.3.43-.47,2.15-2.99,1.46-4.59.65-5.36-.44-.42-1.08-.46-1.64-.24-1.35.53-2.93-.39-2.93-.39l-48.57-38.61s-8.72-4.98-9.96-9.96c-1.25-4.98-3.74-1.25-3.74-1.25-2.49,2.49-5.9,3.64-5.9,3.64l-97.47,22.51s-3.74,1.25-6.23,0c-.93-.47-1.69-.41-2.28-.15-.92.4-1.46,1.38-1.46,2.39v4.91c0,.89.79,1.57,1.67,1.44.66-.1,1.36-.27,1.75-.57.31-.24.7-.31,1.03-.11l8.34,5.21c.36.23.3.77-.11.91l-1.69.56c-.69.23-1.2.86-1.22,1.59-.05,1.31.31,3.4,2.69,4.98,3.3,2.2,18.27,11.21,21.71,13.28.41.25.57.75.39,1.19l-.57,1.37c-.23.23-.36.53-.38.85l-1.14,19.44c-.05.78.27,1.54.86,2.05l8.09,7.08c.6.52.94,1.28.94,2.07v15.9c0,.9-.59,1.68-1.44,1.94-2.54.75-7.78,2.52-10.24,4.92-.52.5-.79,1.2-.84,1.92l-1.12,16.73c-.04.65.05,1.31.28,1.92.86,2.23,3.41,7.63,8.71,9.88.55.23.88.82.84,1.42l-2.34,33.98c-.04.63-.46,1.17-1.06,1.38-2.17.75-7.34,2.83-9.69,6.25-.35.51-.55,1.11-.59,1.73l-11.15,168.55-2.49,41.1,93.41,3.74,23.66-18.68Z"/>
  <path class="cls-1" d="M713.68,296.28l-29.89-32.38-1.96-4.9c-.28-.69-1.11-.97-1.75-.59l-5,3-56.04,13.7-70.9,18.34c-.88.23-1.8.25-2.69.07l-3.14-.63c-.84-.17-1.59.56-1.44,1.4l.95,5.73c2.07,9.3,9.28,10.88,11.68,11.15.44.05.78.41.8.85.06,1.46.29,4.5,1.23,5.43,1.02,1.02,12.17,8.8,16.09,11.52.87.6,1.93.82,2.97.62l4.19-.81c.31-.06.59.17.59.48,0,1.59.07,5.86,1.08,6.87,1.25,1.25,2.49,1.67,2.49,1.67h0c-.78.51-1.25,1.38-1.25,2.31v17.19c0,2.49,1.25,2.49,1.25,2.49v1.25c0,2.49,4.98,7.47,4.98,7.47l1.25,22.42-2.49,1.25c-2.49,1.25-3.74,4.98-3.74,4.98v19.93c0,1.25,8.72,9.96,8.72,9.96l1.25,44.84c-3.74,2.49-6.23,6.23-6.23,6.23l9.96,229.16h94.65l23.66-17.44-11.21-199.27-7.47-8.72-2.49-46.08,6.23-4.98-1.25-19.93-7.47-7.47-1.25-24.91,4.98-4.98-1.25-24.91c0-2.49,6.23-2.49,6.23-2.49,0,0,12.45-1.25,14.95-3.74,2.49-2.49,3.74,0,3.74,0,0,0,3.74,2.49,3.74-1.25s-1.25-7.47-1.25-7.47c0,0-2.49-1.25,1.25-2.49,3.74-1.25,6.23-3.74,6.23-3.74,0,0,1.25-1.25,2.49,0,1.25,1.25,2.49,0,2.49,0,0,0,1.25-1.25,0-3.74s-1.25-3.74-1.25-3.74v-1.25s-2.49-1.25,0-3.74c0,0,0-2.49-1.25-2.49s2.49-2.49,2.49-2.49c0,0,2.49-2.49,0-3.74-2.49-1.25-4.98,1.25-4.98,1.25,0,0-1.25,2.49-2.49,2.49s-1.25-1.25-1.25-2.49-11.21-11.21-11.21-11.21l-29.89-32.38"/>
  <path class="cls-1" d="M889.29,215.33c8.72-7.47,3.5-20.6,3.5-20.6.12-.33.47-.52.8-.43,10.6,2.74,9.4,13.56,9.4,13.56,0,7.27-7.81,10.21-10.39,10.99-.71.21-1.46.21-2.15-.05-3.49-1.35-7.39-7.2-7.39-7.2l-47.33-54.8-62.27-70.99c-2.49-1.25-1.25-3.74-1.25-3.74-13.7-13.7-9.96-39.85-9.96-39.85,1.25-7.47-1.25-23.66-1.25-23.66-1.78-9.79-8.65-15.13-12.43-17.38-2.28-1.36-5.2-1.22-7.28.43l-.04.03c-1.55,1.24-2.62,3-2.98,4.95-9.42,51.98-54.5,59.29-54.5,59.29l-146.96,49.82-239.12,73.48L29.59,265.33c-.99.29-2.04.32-3.05.1h0c-13.41-2.94-23.19-16.58-22.8-30.28,0-.24-.32-.32-.41-.1-1.89,4.51-8.25,22.85,5.8,37.89.58.62,1.07,1.32,1.42,2.09l5.7,12.53,123.3,74.73,27.4,18.68s4.98,1.25,4.98,6.23l97.47-22.51s3.41-1.15,5.9-3.64c0,0,2.49-3.74,3.74,1.25,1.25,4.98,9.96,9.96,9.96,9.96l36.12,28.64s12.45-6.23,13.7-13.7c1.25-7.47,6.23-8.72,6.23-8.72l125.79-27.4,89.67-22.42s0,7.47,2.49,8.72c0,0,1.25,2.49,0,3.74s0,2.49,0,2.49c0,0,3.74,2.49,6.23,2.49,0,0,2.49-1.25,2.49,1.25l-2.49,2.49s-1.25,1.25-2.49,4.98c-1.25,3.74,2.49,7.47,2.49,7.47,0,0,7.47,4.98,13.7-2.49,0,0-1.25,0-1.25-2.49v-17.19c0-.93.47-1.8,1.25-2.31h0s-1.25-.42-2.49-1.67c-1.01-1.01-1.09-5.28-1.08-6.87,0-.31-.28-.54-.59-.48l-4.19.81c-1.03.2-2.1-.02-2.97-.62-3.92-2.72-15.06-10.49-16.09-11.52-.94-.94-1.17-3.98-1.23-5.44-.02-.44-.35-.79-.79-.84-2.39-.27-9.61-1.84-11.68-11.15l-.95-5.73c-.14-.84.61-1.57,1.44-1.4l3.14.63c.89.18,1.81.15,2.69-.07l70.9-18.34,56.04-13.7,5.03-3.02c.63-.38,1.44-.1,1.71.58l1.97,4.94,29.89,32.38,23.66-14.95,139.32-38.22c.89-.24,1.61-.89,1.96-1.75l4.2-10.49c.15-.38.38-.73.68-1.02,1.37-1.34,5.63-5.75,7.96-10.87"/>
  <path class="cls-1" d="M447.79,120.05s.92,1.83.39,3.14c-.1.26.14.52.41.49,1.86-.2,6.15-.37,4.18,2.6,0,0,0,1.25,1.25,1.25s2.49,0,1.25,2.49c-1.25,2.49,2.49,1.25,2.49,1.25l33.63-9.96s-3.74,0-6.23-3.74c0,0-2.49-3.74-2.49-4.98s0-9.96,6.23-7.47c0,0,2.49-7.47,7.47-3.74,0,0,2.49-7.47,7.47-1.25,0,0,6.23-6.23,8.72,0,0,0,4.98-2.49,4.98,0s3.74,2.49,3.74,2.49c0,0,2.49-1.25,2.49,3.74,0,0-1.25,1.25,0,2.49,1.25,1.25,0,2.49,0,2.49,0,0,9.96-1.25,11.21-2.49,1.25-1.25,6.23-7.47,6.23-9.96,0,0,2.49-3.74,2.49,0,0,0-2.49,7.47,0,11.21l.4,3.16-223.33,69.07v-1.7c0-.39-.35-.68-.73-.6-1.09.22-3,.35-3-1.43v-1.25s-2.48,1.24-4.97-11.15c0-.04-.01-.08-.01-.13v-1.18s1.15,1.15,1.15,1.15c.07.07.11.14.14.22.23.65,1.34,3.61,2.45,3.61,0,0,2.49,1.25,2.49,2.49s5.98.05,6.22,0h.03s28.63-7.47,28.63-7.47c0,0,8.15-2.04,10.63-4.27.33-.3.25-.83-.15-1-1.15-.5-3.35-1.65-4.25-3.45,0,0-7.25-10.88-.32-12.39.19-.04.35-.16.43-.34.34-.78,1.46-2.84,3.37-1.21.14.12.36.12.48-.02.99-1.11,5.11-5.23,9.33-2.51.25.16.56.2.82.06,1.42-.71,6.15-2.65,9.32,1.17.13.16.36.21.54.1,1.41-.84,7.16-3.87,7.16,2.68v2.49c0,.73-.86.6-1.58.37-.57-.18-1.03-.6-1.29-1.13l-.87-1.73s-.96-1.92-2.87-.71c-.62.39-.9,1.17-.61,1.84s.91,1.36,2.23,1.36c2.49,0,2.49,3.74,2.49,3.74,0,0,0,3.23-3,3.68-.15.02-.17.24-.02.28,1.81.48,6.77,1.26,11.74-2.71l27.4-8.72s1.25-1.25-3.74-2.49c0,0-2.49,0-2.49-2.49,0-.97-.38-1.37-.84-1.5-1.02-.29-1.61-1.37-1.51-2.42.27-2.79,1.04-6.82,3.2-7.25.27-.05.48-.26.6-.5.64-1.3,2.69-4.75,5.55-2.45.23.19.59.11.71-.17.74-1.62,3.21-5.76,8.06-2.22.23.17.54.16.74-.05.98-1.02,4.09-3.61,8.05.04.19.18.48.2.68.04.76-.62,2.7-1.92,4.65-.95"/>
  <path class="cls-1" d="M404.2,148.7c-1.25-2.49-4.98-11.21-4.98-11.21-1.12,0-15.44-45.67-18.22-54.56-.18-.57.39-1.07.94-.86,1.55.61,2.33.61,2.33.61,0,0-3.74,0-2.49-3.74s0-6.23,0-6.23c-1.25,0-3.74-6.23-3.74-8.72s-2.49-3.74-2.49-4.98-1.25-3.74-1.25-3.74c0-3.74-1.25-7.47-1.25-7.47-1.25,0-1.25,8.72-1.25,9.96s-2.49,6.23-2.49,6.23c0,0,1.25,0-1.25,7.47-2.49,7.47,0,6.23,0,6.23,0,0,1.25,0,1.25,3.74s-4.98,4.98-3.74,4.98,3.74-1.25,3.74-1.25c-4.98,39.85-21.17,80.95-21.17,80.95,3.07-1.32,3.29-.38,4.98-3.74,3.1-6.17,6.23-17.44,6.23-17.44l8.72-36.12,4.98-19.93s-1.25-1.25,1.25-4.98c2.49-3.74,3.74,1.25,3.74,1.25l8.72,29.89s6.23,18.68,7.47,24.91c1.04,5.21,4.12,9.07,5.1,10.19.13.15.36.1.42-.09.33-1.02,1.45-3.38,4.44-1.38"/>
  <path class="cls-1" d="M462.73,130.02s-7.47-8.72-8.72-14.95c-1.25-6.23-9.96-27.4-9.96-27.4l-11.21-28.64s-1.25-4.98-3.74-1.25c-2.49,3.74-1.25,4.98-1.25,4.98l-3.74,28.64-4.98,34.87s-1.34,13.8-6.23,18.68c-2.5,2.5-4.03,2.53-6.84,3.49-.21.07-.4-.14-.29-.33,1.64-2.82,8.67-15.94,10.86-36.79.55-5.19,1.63-10.54,2.49-16.19,1.76-11.48,3.59-23.7,4.98-34.87,0,0-3.74,1.25-4.98,1.25s3.74-1.25,3.74-4.98v-1.96c0-.76-.4-1.53-1.11-1.8-.86-.33-1.66-1.64-.14-6.21,2.49-7.47,1.25-7.47,1.25-7.47,0,0,1.25-2.49,1.25-4.98,0-.84,1.25-.88,1.25-1.25,0-1.02.56-7.81,1.25-9.96,0,0,1.25,0,1.25,1.25,0,1.76,1.57,6.15,2.49,7.47.62.9.67.29,1.51.99.52.44.98.97.98,1.5,0,3.74,1.25,3.74,1.25,6.23s1.25,8.72,2.49,8.72c0,0,1.25,1.04,1.25,4.98s3.74,3.74,3.74,3.74c0,0-1.25,0-3.74-1.25-2.23-1.11-.35,2.92,0,3.74,4.73,10.99,22.56,57.29,23.66,57.29,0,0,3.74,6.23,4.98,8.72l1.54,1.97"/>
  <path class="cls-1" d="M534.97,108.84c-3.74-2.49-6.23,1.25-6.23,1.25,0,0-7.47-8.72-8.72-14.95-1.25-6.23-7.47-21.17-7.47-21.17l-9.96-31.14s-1.25-4.98-3.74-1.25c-1.54,2.31-1.65,3.67-1.51,4.37.14.71.19,1.44.13,2.16l-4.84,25.85-4.91,28.38c-.05.18,0,.42-.15.51-3.65,2.24-2.02,13.96-4.89,19.68-1.69,3.36-2.49,0-8.72,3.74,0,0,6.23-6.23,8.72-29.89.55-5.19,2.87-13.03,3.74-18.68,1.69-11.04,5.75-21.61,7.3-32.34.1-.68-.44-1.29-1.13-1.29h-2.44c-1.25,0,3.74-1.25,3.74-4.98v-1.96c0-.76-.4-1.53-1.11-1.8-.86-.33-1.66-1.64-.14-6.21,2.49-7.47,1.25-7.47,1.25-7.47,0,0,2.49-4.98,2.49-6.23s0-9.96,1.25-9.96c0,0,1.25,3.74,1.25,7.47,0,0,1.25,2.49,1.25,3.74s2.49,2.49,2.49,4.98c0,1.87,1.4,5.84,2.63,7.71,1.38,2.1,1.86,3.6,1.11,5.99-.02.06.02,1.18,0,1.25-1.25,3.74,4.98,3.74,4.98,3.74,0,0-2.16,0-4.28-.55-.78-.2-1.47.54-1.19,1.29,4.05,10.64,23.04,60.28,24.15,60.28l4.98,6.23c.27.53.96.29.54.71l-.54.54Z"/>
  <path class="cls-1" d="M364.35,141.22s0-2.49-2.49-1.25c-2.49,1.25,1.25-8.72,1.25-8.72,0,0,11.21-6.23,22.42-1.25,0,0,8.72,4.98,3.74,7.47,0,0,3.74,2.49,3.74-1.25l1.57,5.11s-1.57-3.86-4.06-1.37c0,0,0,3.74,2.49,3.74,0,0,1.25,0,1.25,2.49,0,0,2.49,2.49,1.25,3.74,0,0,0-2.49-1.25-1.25s1.89,2.89,1.89,2.89c0,0-8.12,7.07-11.86,2.09,0,0,1.25-3.74-1.25-6.23-2.49-2.49.02-6.25.02-6.25,0,0-2.52.02-2.52,1.27s-4.98,0-6.23-1.25c-1.25-1.25-1.25,2.49,1.25,3.74,0,0,1.25,1.25,1.25,2.49,0,0-1.25-2.49-3.74-2.49,0,0-1.25,0-1.25-2.49s-4.98,0-4.98,0c0,0-1.25,1.25-2.49-1.25Z"/>
  <path class="cls-1" d="M386.76,131.26s-2.49-8.72-2.49-11.21-2.49-3.74-2.49-3.74c0,0,0-2.49,1.25-2.49,0,0,0-2.49-2.49-3.74-2.49-1.25,0-2.49,0-2.49,0,0,0-3.74-1.25-6.23-1.25-2.49,0-2.49,0-2.49,0,0,0-1.25-1.25-2.49-1.25-1.25,0-3.74,0-3.74,0,0,1.25-1.25-1.25-3.74-2.49-2.49,0,0,0,0,0,0-1.25-2.49-2.49,1.25,0,0-1.25,1.25,0,3.74,1.25,2.49-1.25,2.49-1.25,2.49,0,0-1.25,1.25-1.25,2.49,0,0,1.25,1.25,0,2.49-1.25,1.25-1.25,4.98,0,6.23,1.25,1.25-1.25,2.49-1.25,2.49,0,0-2.49,1.25-2.49,3.74,0,0,2.49-2.49,2.49,2.49,0,0-2.49,1.25-2.49,2.49s-.25,10.24-3.86,11.97c0,0,16.31-4.5,22.54.49Z"/>
  <path class="cls-1" d="M429.11,75.22s1.25,0,0-2.49c-1.25-2.49,0-3.74,0-3.74,1.25-3.74,2.49-1.25,2.49-1.25,0,0-2.49-2.49,0,0,2.49,2.49,1.25,3.74,1.25,3.74,0,0-1.25,2.49,0,3.74,1.25,1.25,1.25,2.49,1.25,2.49,0,0,0,1.25,1.25,3.74.71,1.42,1.46,2.78,1.25,3.74-.27,1.17,0,2.49-.75,3.6-.3.45.42,1.01.75,1.38.35.41,2,.75,2.49,1.25.6.6.91,1.19,1.07,1.65.14.41-.1.81-.52.93-1.54.44-.55,2.41-.55,2.41,0,0,2.49,1.25,2.49,3.74s3.74,11.21,3.74,11.21c-6.23-4.98-22.42,2.49-22.42,2.49,3.61-1.73,3.18-13.83,3.74-14.95.92-1.84-.2-3-.85-3.48-.25-.19-.4-.48-.38-.79.26-4.36,3.72-3.2,3.72-3.2,0,0,0-1.25-1.25-2.49-1.25-1.25,0-7.47,0-7.47,0,0,1.07-2.15.23-3.45-.13-.2-.23-.41-.23-.65,0,0,0-2.12,1.25-2.12Z"/>
  <path class="cls-1" d="M420.39,115.07s14.95-11.21,27.4-2.49c0,0,2.49,2.49,1.25,4.98-1.25,2.49,1.25,1.25,1.25,1.25h3.74s1.25,1.25,0-2.49l2.23,4.48s-7.01-.97-7.73,1.01c0,0-.72,5.72-3.21,5.72s-2.49-2.49-2.49-3.74-1.25,1.25-2.49,2.49-2.49,2.49-4.98,0v-3.74c0-1.25-1.25,0-1.25,1.25s-1.25,3.74-2.49,3.74-3.74,0-4.98-2.49c-1.25-2.49-4.98-3.74-4.98-3.74l-1.59-.95s-2.14-2.79.35-5.28Z"/>
  <path class="cls-1" d="M487.64,98.88s-.29-3.44,2.44-6.34c2.96-3.13,9.46-5.62,23.71-2.38,0,0,6.23,2.49,4.98,6.23,0,0-2.49,2.49,0,2.49s2.03-1.17,2.03-1.17l1.79,3.25s-4.57-2.45-4.82.22c0,0,1,3.92-2.74,3.92,0,0-3.74-3.74-3.74-1.25s-3.74,2.49-6.23,1.25c0,0-1.25-4.98-2.49-1.25,0,0-1.25,3.74-3.74,1.25-2.49-2.49-2.49,0-2.49,0,0,0-3.74-1.25-3.74-4.98,0,0-1.25-1.25-2.49,0-1.25,1.25-2.49-1.25-2.49-1.25Z"/>
  <path class="cls-1" d="M491.38,91.41s0,2.49,1.25-3.74,1.25-7.47,1.25-7.47l-2.43.59s-.06-.59-.06-1.83c0-.74,2.34-.78,3.74-1.25,0,0,0-2.49-1.25-3.74-1.25-1.25-.07-3.72-.07-3.72,0,0,1.32-1.26,2.57-1.26s1.25-1.25,0-2.49c-1.25-1.25,0-6.23,0-6.23,0,0,1.25-3.74,1.25-4.98s-1.25-1.25,0-2.49c1.25-1.25,1.25-3.74,1.25-3.74l-1.25-2.02s0-4.21,1.25-4.21l1.25-1.25s2.49,1.25,2.49,2.49,1.25,2.49,0,3.74,0,3.74,0,3.74c0,0,2.49,1.25,1.25,2.49,0,0,0,3.74,1.25,4.98,1.25,1.25,1.25,7.47,0,7.47,0,0,0,1.25,1.25,1.25s4.98,2.49,3.74,3.74-2.49,1.25-1.25,3.74q1.25,2.49,1.25,3.74c0,1.25,2.49,11.21,3.74,11.21,0,0-19.93,3.74-22.42,1.25Z"/>
  <path class="cls-1" d="M194.35,217.82s-2.49-4.98,0-6.23c2.49-1.25,0-4.98,0-4.98,0,0-2.49-4.98,1.25-3.74h3.74s2.49,0,1.25,2.49,2.49,4.98,2.49,4.98c0,0,2.49,1.25,1.25,2.49-1.25,1.25.67,2.57.67,2.57l-10.64,2.42Z"/>
  <path class="cls-1" d="M105.92,242.73s-2.49-3.74-2.49-6.23c0,0,2.49,0,0-3.74-2.49-3.74,0-4.98,0-4.98h6.02c.08,0,.13.09.08.15-.28.37-.85,1.35.13,2.34,1.25,1.25,1.25,4.98,2.49,3.74s1.25,0,1.25,0c0,0-1.25,2.49,0,3.74s4.16,2.62,4.16,2.62l-11.63,2.37Z"/>
  <path class="cls-1" d="M34.93,263.9s-3.74-3.74-7.47-4.98c-3.74-1.25-3.74-3.74-3.74-3.74v-1.25s-2.49,0-3.74-1.25,0-1.25,0-1.25c0,0,3.74-1.25,4.98-1.25,0,0,1.25,0,0-2.49-1.25-2.49,1.25-3.74,1.25-3.74,0,0,1.25,0,1.25-1.25s0-2.49,2.49-2.49,2.49,1.25,2.49,1.25c0,0,1.25,2.49,2.49,2.49s2.49,1.25,2.49,1.25c0,0,0,1.25,1.25,0,1.25-1.25,6.23,1.25,6.23,1.25,0,0,3.74,1.25,7.47,0l3.74-1.25s0,1.25-3.74,2.49c-3.74,1.25-1.25,2.49-1.25,2.49,0,0,1.03-1.03,4.03,1.6.51.45,1.2.63,1.86.46.76-.19,2.05-.25,4.07.43,0,0,2.49,1.25,1.25,2.49v1.25l-27.4,7.47Z"/>
  <path class="cls-1" d="M286.51,191.66s2.49,0,0-2.49c-2.49-2.49,0-4.98,0-4.98,0,0-1.25-2.49-2.49-3.74s-1.25-3.74,0-3.74,3.74,1.25,3.74,0v-1.25s2.49,1.25,3.74,1.25,2.49,0,1.25,1.25c-1.25,1.25,0,3.74,0,3.74l2.49,2.49s3.74,2.49,2.49,2.49,4.98,1.25,4.98,1.25c0,0-13.7,4.98-14.95,4.98s-1.25-1.25-1.25-1.25Z"/>
  <path class="cls-1" d="M604.09,92.03s-3.74-4.98-1.25-8.72c0,0,1.25-1.25-2.49-4.98,0,0-2.49-7.47,2.49-4.98,0,0,1.25-1.25,3.74,0,0,0,2.49,1.25,1.25,2.49s0,1.25,0,1.25l2.49,3.74s1.25,1.25,2.49,0c0,0,1.25-1.25,1.25,1.25s-1.25,4.98,1.25,4.98,1.25,1.25,1.25,1.25l-12.45,3.74Z"/>
  <path class="cls-1" d="M789.48,104.51s3.91,2.47,3.91,1.22,1.25-2.49,1.25-2.49c0,0-2.49-3.74-1.25-3.74s0,1.25,3.74,1.25,3.74,2.49,3.74,2.49c0,0,1.25,0,1.25-1.25,0,0,3.74,0,2.49,1.25s0,3.74-3.74,4.98c-3.74,1.25,0,0,0,0,0,0-6.23,0-4.98,2.49h-2.49l-3.91-6.2Z"/>
  <path class="cls-1" d="M838.05,159.21s3.91.07,3.91-2.42,0-1.25,0-1.25l3.74,1.25s2.49,2.49,3.74,2.49,0,1.25,0,1.25c0,0-1.25,1.25-1.25,2.49s-3.74,1.25-3.74,1.25l-2.07.62-4.33-5.68Z"/>
  <path class="cls-1" d="M866.9,193.13s2.47-3.96,6.2-1.47c3.74,2.49,3.74,6.23,4.98,4.98,0,0-4.98,3.79-3.11,5.01,1.87,1.22,1.87,3.71,5.6,3.71s1.25,2.49,1.25,2.49c0,0-1.79,2.74-.27,2.62s-2.22,3.61-4.71,1.12c-2.49-2.49-4.93-15.74-9.94-18.46Z"/>
  <path class="cls-1" d="M56.1,311.22s2.49,1.25,1.25,3.74c0,0-2.24-1.12-1.41,3.01.09.47-.08.96-.45,1.26-.44.35-1.13.85-2.05,1.38-1.19.69-1.46,2.35-.45,3.29.41.38,1.01.73,1.88,1.02,0,0,7.47,2.49,8.72,1.25,0,0,3.74-1.25,1.25-3.74-2.49-2.49-1.25-3.74-1.25-3.74,0,0,1.25-1.25,0-2.49-.44-.44-.57-.73-.55-.91.04-.32-.05-.63-.34-.78l-6.58-3.29Z"/>
  <path class="cls-1" d="M114.02,346.72s2.49,0,1.25,2.49c0,0-2.49-1.25-.79,2.39.2.44-.08.96-.45,1.26-.44.35-.33.8-1.25,1.33-1.19.69-2.26,2.4-1.25,3.34.41.38,1.63,1.36,2.5,1.65,0,0,6.23,1.25,8.1.62,0,0,4.36-1.87,1.87-4.36-2.49-2.49-1.87-3.11-1.87-3.11,0,0,1.25-1.25,0-2.49-.44-.44-.57-.73-.55-.91.04-.32-.05-.63-.34-.78l-7.2-1.42Z"/>
  <path class="cls-1" d="M58,325.86s-.65,1.55-.65,2.8v1.25s1.25,3.74,0,4.98c-1.25,1.25-2.49,6.23-2.49,6.23,0,0-1.25,4.98,2.49,0l4.25-4.25c.53-.53.9-1.23.99-1.98.15-1.2.05-2.96-1.51-3.73l-1.64-.82c-.52-.26-.85-.79-.85-1.38v-1.19c0-.23-.04-.46-.13-.67l-.47-1.23Z"/>
  <path class="cls-1" d="M116.45,359.6l.06,3.31s0,2.49,1.25,0c0,0-1.25-1.25,0-2.49,0,0-.11-1.63-1.3-.82Z"/>
  <path class="cls-1" d="M138.92,360.42c-.67.67-.72,1.73-.15,2.49.47.62.78,1.25.16,1.25-.54,0-.61.48-.52,1.01.2,1.14-.3,2.3-1.22,2.99-.7.52-1.46.98-1.99.98-1.25,0,1.25,3.74,3.74,3.74,0,0,6.23,1.25,7.47,0,0,0,2.49,0,1.25-2.49-1.25-2.49,0-2.49,0-2.49l-8.72-7.47h0Z"/>
  <path class="cls-1" d="M141.42,372.87v4.98s1.25,1.25,1.25,0-1.25-4.98-1.25-4.98Z"/>
  <path class="cls-1" d="M838.85,253.31s1.25,2.49-3.74,1.25c0,0,1.25,2.49-1.25,4.98,0,0-1.25,1.25,0,2.49s-1.25,3.74-1.25,3.74c0,0-3.74,2.49,0,3.74,0,0,8.72,3.74,12.45-1.25,0,0,1.25-2.49-1.25-3.74-1.47-.73-1.64-1.9-1.53-2.73s-.09-1.76-.65-2.44c-.45-.55-1-1.05-1.56-1.05-1.25,0-1.25-4.98-1.25-4.98Z"/>
  <path class="cls-1" d="M837.6,270.75v7.47s1.25,1.25,1.25-1.25-1.25-6.23-1.25-6.23Z"/>
  <path class="cls-1" d="M796.51,265.77v7.47s0,2.49-1.25,2.49-4.98,2.49-2.49,3.74,0,3.74,0,3.74c0,0-3.74,3.74,0,4.98,3.74,1.25,9.96,0,9.96,0,0,0,3.74-1.25,2.49-3.74-1.25-2.49-3.74-1.25-2.49-4.98,1.25-3.74-2.49-3.74-2.49-3.74,0,0-2.49,0-2.49-1.25s-1.25-8.72-1.25-8.72Z"/>
  <path class="cls-1" d="M799,289.43l1.25,4.98s-4.98,3.74-6.23,4.98c-1.25,1.25,1.25,4.98,1.25,4.98,0,0,4.98,3.74,4.98,4.98s3.74-2.49,3.74-2.49c0,0,3.74-6.23,1.25-8.72,0,0-3.74-2.49-3.74-3.74s-2.49-4.98-2.49-4.98Z"/>
  <path class="cls-1" d="M724.27,289.43s2.49,1.25-1.25,4.98c-3.74,3.74-1.25,2.49-1.25,2.49,0,0,2.49-1.25,4.98,0,2.49,1.25,3.74-1.25,3.74-1.25,0,0-1.25-2.49-2.49-2.49s0-2.49,0-2.49v-2.49c0-1.25-3.74,1.25-3.74,1.25Z"/>
  <path class="cls-1" d="M712.44,52.18s1.25-8.72,7.47-12.45c6.23-3.74,6.23-14.95,6.23-14.95,0,0,2.49,1.25,4.98-1.25,2.49-2.49,4.83-17.54,7.4-18.11,2.57-.57-1.17,10.64-1.17,10.64,0,0-11.21,32.38-24.91,36.12Z"/>
  <path class="cls-1" d="M.42,246.75s.26-8.38,1.51-10.87c0,0,1.25-2.49,2.49-2.49.62,0,.62.31.47.62-.35.71-.42,1.52-.34,2.31.41,3.72,2.07,13.01,8.72,21.83"/>
  <path class="cls-1" d="M885.55,216.57s6.23-1.25,6.23-3.74,8.72,1.25,9.96-1.25c0,0-4.98,8.72-13.7,6.23l-2.49-1.25Z"/>
</svg>