<?xml version="1.0" encoding="UTF-8"?>
<svg id="Layer_1" data-name="Layer 1" xmlns="http://www.w3.org/2000/svg" viewBox="0 0 598.28 582.16">
  <defs>
    <style>
      .cls-1 {
        fill: none;
        stroke: #231f20;
        stroke-miterlimit: 10;
      }
    </style>
  </defs>
  <path class="cls-1" d="M106.39.5c89.61,1.61,164.05,63.25,178.87,142.25,18.34,97.72-59.96,193.04-143.66,202.82-42.37,4.95-108.56-9.39-132.39-63.38-23.75-53.8,4.21-125.14,46.48-142.25,62-25.1,111.63,83.97,207.04,73.24,81.54-9.17,92.7-94.15,181.69-101.41,51.82-4.23,110.25,19.53,136.62,61.97,56.09,90.3-39.8,254.17-123.94,261.97-78.02,7.23-114.24-122.66-195.77-111.27-53.68,7.5-107.08,73.47-100,136.62,7.52,67.08,79.71,99.13,94.37,105.63,80.9,35.92,159.49-3.05,176.06-11.27,74.98-37.18,105.72-103.85,114.08-123.94"/>
</svg>