<?xml version="1.0" encoding="UTF-8"?>
<svg id="Layer_1" data-name="Layer 1" xmlns="http://www.w3.org/2000/svg" viewBox="0 0 1669.42 634.19">
  <defs>
    <style>
      .cls-1 {
        fill: none;
        stroke: #0031cc;
        stroke-miterlimit: 10;
      }
    </style>
  </defs>
  <path class="cls-1" d="M1653.61,626.03c-.11,0-.22-.01-.34-.02-4.5-.19-9.04-.49-13.61-.84-2.21-.18-4.44-.39-6.66-.61-2.43-.23-4.87-.47-7.32-.74-2.96-.33-5.94-.7-8.93-1.1-.88-.12-1.77-.25-2.65-.37l14.69-1.73v-.04s0,0,0,0l-3.36-11.89-36.74,9.48c-4.74-.92-9.51-1.94-14.32-3.02-1.56-.35-3.12-.72-4.69-1.08-1.04-.24-2.09-.52-3.14-.77l9.79-2.89v-.04s0,0,0,0l-1.68-12.15-31.6,8.91c-.6-.17-1.2-.33-1.8-.5-4.36-1.25-8.76-2.62-13.16-3.99-1.91-.6-3.81-1.16-5.73-1.78l10.08-2.97v-.04s0,0,0,0l-4.55-12.15-26.24,8.12c-5.71-2.05-11.44-4.17-17.23-6.41l8.55-.78v-.04s0,0,0,0l-1.29-12.72-32.14,3.36c-4.36-1.86-8.72-3.71-13.12-5.68l8.06-.74v-.04s0,0,0,0l-1.29-12.72-29.26,3.06c-2.14-1.02-4.29-2.07-6.43-3.12-3.4-1.66-6.8-3.31-10.23-5.03-.72-.36-1.44-.74-2.16-1.11l10.03-.91v-.04s0,0,0,0l-1.29-12.72-29.21,3.05c-1.64-.87-3.28-1.75-4.92-2.64-2.81-1.52-5.63-3.05-8.46-4.6-1.27-.7-2.54-1.41-3.81-2.12l10.94-1v-.04s0,0,0,0l-1.29-12.72-28.63,2.99c-1.11-.64-2.22-1.27-3.33-1.92-1.9-1.11-3.8-2.24-5.71-3.36-2.29-1.35-4.59-2.72-6.89-4.1l8.12.2.7-12.75h0v-.04s-30.07-.36-30.07-.36c-5.71-3.56-11.44-7.19-17.2-10.9l13.64-1.47v-.04s0,0,0,0l-1.57-12.69-28.54,3.46c-8.71-5.76-17.49-11.73-26.3-17.81l13.63,7.92,19.98-3.18v-.04s0,0,0,0l-3.87-13.11-33.67,5.7c-4.85-3.37-9.72-6.8-14.6-10.26l1.19.69,19.98-3.18v-.04s0,0,0,0l-3.87-13.11-31.63,5.36c-1.68-1.22-3.36-2.42-5.04-3.64-1.51-1.1-3.01-2.2-4.52-3.31-1.71-1.26-3.44-2.55-5.16-3.82l20.22-3.21v-.04s0,0,0,0l-2.76-13.3-32.31,5.47c-4.73-3.57-9.47-7.16-14.22-10.81l19.43-1.83v-.04s0,0,0,0l-2.74-13.32-32,3.34c-5.1-3.99-10.21-8.05-15.34-12.14l19.09-2.25v-.04s0,0,0,0l-1.47-12.86-31.89,3.65c-1.63-1.32-3.24-2.61-4.87-3.93-3.5-2.85-6.95-5.71-10.41-8.56l14.28.36.7-12.75h0v-.04s-30.35-.36-30.35-.36c-4.27-3.58-8.49-7.16-12.69-10.74l18.98-.47v-.04s0,0,0,0l-1.49-13.47-32.46,1.14c-4.25-3.68-8.45-7.34-12.61-10.99l20.17-.5v-.04s0,0,0,0l-1.49-13.47-33.22,1.16c-3.79-3.38-7.54-6.73-11.25-10.08l19.73-.49v-.04s0,0,0,0l-1.49-13.47-32.44,1.13c-3.83-3.5-7.6-6.96-11.33-10.41l1.93,1.54,20.31-.51v-.04s0,0,0,0l-1.49-13.47-32.94,1.15c-3.23-3.02-6.42-6.02-9.57-8.99l15.82-1.97v-.04s0,0,0,0l-1.2-13.49-28.49,2.33c-2.21-2.11-4.41-4.22-6.57-6.3l15.75-1.89v-.04s0,0,0,0l-1.11-13.5-28.31,2.18c-2.91-2.84-5.78-5.64-8.58-8.4l1.44,1.21,16.61-1.99v-.04s0,0,0,0l-1.11-13.49-29.14,2.25c-2.76-2.75-5.47-5.45-8.11-8.11l16.25-.68v-.04s0,0,0,0l-1.74-13.41-27.59.92c-3.11-3.16-6.1-6.22-9-9.2l15.88-.66v-.04s0,0,0,0l-1.74-13.41-26.91.9c-1.47-1.53-2.87-3-4.27-4.46l1.21-4.5h-.01s.01-.04.01-.04l-7.4-1.96c-7.17-7.57-13.19-14.02-17.86-19.08l.49-3.28h2.18v-17.91h0s0,0,0,0v-.04h-1.3v-10.66h0v-.04h-1.3v-10.03h-2.42v-9.07h0v-.04h-1.85v-1.14h.96v-2.85h0v-.04h-6.11l-.1-.39-8.69-32.69h2.03v-2.8h0v-.04h0v-.04h-1v-3.86h0v-.04h0v-.04h-1.73v.04h0v1.36h-1.36l-.33-1.67h0l-.16-.91h.46v-.04s0,0,0,0h0v-.04s0,0,0,0h0s-.4-2.02-.4-2.02h0l-.16-.91h.16v-.04s0,0,0,0h0v-.04s0,0,0,0l-.97-4.93h-.03c-.04-.26-.14-.51-.29-.73-.08-.12-.2-.22-.3-.33-.06-.07-.11-.14-.19-.2h.52s0,0,0,0h0s0-.03-.01-.04h0s0,0,0,0c0-.02,0-.03-.01-.04h.01s0,0,0,0h0,0c-.02-.1-.06-.18-.09-.27-.01-.04-.02-.07-.04-.11-.05-.12-.1-.23-.16-.33,0,0,0,0,0,0,0,0,0-.01-.01-.02,0,0,0-.01,0-.02,0,0-.02-.01-.02-.02-.02-.03-.04-.05-.06-.08-.07-.11-.15-.21-.24-.3-.1-.11-.21-.21-.34-.3-.03-.02-.05-.06-.08-.08-.03-.02-.05-.04-.08-.05-.04-.03-.08-.06-.13-.08.18-.25.31-.55.31-.89,0-.01,0-.02,0-.03,0,0,0,0,0-.01,0-.01,0-.02,0-.04h0c0-.28-.07-.53-.19-.74-.03-.05-.09-.08-.12-.13-.11-.15-.22-.29-.36-.39v-1.21h0s0,0,0,0v-.04h-.37V.54h0v-.04h-.32v.04h-.31v3.28h-.37v.04h0v1.21c-.4.26-.68.72-.68,1.26,0,0,0,.01,0,.02,0,0,0,.02,0,.03,0,.38.16.69.38.94.01.01,0,.04.02.05-.57.34-1,.91-1.16,1.62h.02s-.02.03-.02.04h.54c-.43.33-.73.79-.81,1.3h-.04l-.97,4.93h0v.04s.18,0,.18,0l-.19.95h0l-.4,2.02h0v.04s.29,0,.29,0l-.16.84-.02.12h0l-.33,1.67h-1.16v-.88h-1.73v3.42h-1.01v2.8h0v.04h1.85l-8.79,33.07h-6.28v2.85h0v.04h1.12v1.14h-2.01v9.12h-2.42v10.03h-1.3v10.7h-1.3v17.96h2.18l.33,2.24c-32.66,35.45-135.15,143.5-266.27,250.47-93.41,76.2-182.82,136.92-265.75,180.45-25.88,13.59-51.15,25.5-75.75,35.73,0,0-.02,0-.02,0-5.82,2.42-11.59,4.73-17.33,6.95-.59.23-1.18.46-1.77.69-6.32,2.43-12.58,4.74-18.81,6.95l-.75.19v.04s0,0,0,0v.02c-1.98.7-3.95,1.35-5.93,2.03-4.23,1.45-8.45,2.88-12.64,4.22-2.87.92-5.73,1.79-8.58,2.66-3.76,1.15-7.51,2.26-11.24,3.32-2.92.83-5.84,1.65-8.74,2.43-3.7.99-7.37,1.91-11.03,2.81-2.79.69-5.6,1.41-8.37,2.05-4.99,1.15-9.93,2.18-14.85,3.16-3.76.75-7.48,1.41-11.19,2.07-3.28.58-6.56,1.16-9.81,1.66-3.2.49-6.36.91-9.52,1.32-2.82.37-5.63.73-8.43,1.04-3.25.36-6.48.7-9.7.98-2.64.23-5.26.42-7.87.6-3.25.22-6.51.46-9.73.6-2.46.11-4.88.13-7.32.19-2.98.07-5.98.19-8.93.19v.04h0v2.21c2.9,0,5.88-.16,8.82-.23,2.51-.06,5.01-.08,7.54-.2,3.2-.14,6.45-.37,9.69-.6,2.67-.18,5.33-.37,8.02-.61,3.2-.28,6.42-.61,9.65-.97,2.85-.32,5.73-.68,8.61-1.06,3.14-.41,6.27-.82,9.43-1.31,3.35-.51,6.73-1.12,10.11-1.71,3.27-.57,6.53-1.13,9.83-1.78,5.35-1.05,10.75-2.19,16.18-3.44,2.7-.62,5.43-1.33,8.14-1.99,3.77-.93,7.55-1.87,11.36-2.89,2.85-.76,5.72-1.57,8.59-2.39,3.82-1.09,7.66-2.22,11.52-3.4,2.79-.85,5.59-1.7,8.4-2.61,4.3-1.38,8.64-2.84,12.99-4.33,1.91-.66,3.79-1.23,5.71-1.91l6.3,18.46,14.23-3.6v-.04s0,0,0,0l-6.78-19.85c.7-.26,1.41-.56,2.11-.83,5.09-1.93,10.21-3.95,15.36-6.02,1.63-.65,3.23-1.23,4.86-1.9l10.71,18.27,13.24-5.75-.02-.03h.02s-10.63-18.13-10.63-18.13c1.35-.58,2.71-1.2,4.06-1.79,2.24-.98,4.48-1.96,6.73-2.96,5.9-2.63,11.82-5.31,17.8-8.15l10.63,18.13,13.24-5.75-.02-.03h.02s-10.92-18.63-10.92-18.63c.68-.33,1.37-.7,2.05-1.04,4.28-2.12,8.59-4.32,12.9-6.53,2.66-1.36,5.28-2.63,7.95-4.03l10.48,18.05,13.27-5.71-.02-.03h.02s-11.07-19.07-11.07-19.07c.66-.36,1.34-.76,2.01-1.12,7.21-3.91,14.46-7.96,21.76-12.12.8-.46,1.59-.87,2.39-1.33l14.28,16.34,11.85-7.67-.02-.03.03-.02-13.79-15.78c2.42-1.43,4.88-2.94,7.31-4.39,2.98-1.78,5.97-3.57,8.97-5.39,1.1-.67,2.19-1.31,3.3-1.98l10.73,17.03,13.04-6.09-.02-.03h.02s-11.6-18.42-11.6-18.42c5.21-3.26,10.43-6.58,15.68-9.96l15.03,16.18,11.58-7.97-.02-.03.02-.02-14.76-15.89c.95-.63,1.92-1.29,2.87-1.92.81-.53,1.62-1.08,2.42-1.62,4.78-3.16,9.55-6.31,14.36-9.58l11.98,16.41,12.56-6.79-.02-.03h.02s-12.86-17.62-12.86-17.62c1.19-.82,2.39-1.68,3.58-2.51,1.82-1.27,3.65-2.55,5.47-3.83,2.64-1.85,5.26-3.66,7.91-5.54l12.11,16.47,12.53-6.83-.02-.03h.02s-13.12-17.85-13.12-17.85c2.97-2.14,5.96-4.33,8.94-6.51.78-.57,1.57-1.14,2.35-1.71,1.19-.87,2.37-1.72,3.56-2.59l16.38,15.38,10.94-8.62-.02-.02.03-.02-16.04-15.07c6.21-4.64,12.43-9.34,18.68-14.13l13.22,15.65,12-7.5-.02-.03.02-.02-14.11-16.71c1.35-1.05,2.71-2.13,4.06-3.19,2.17-1.69,4.34-3.4,6.5-5.11,2.54-2,5.07-3.96,7.62-5.98l14.15,15.89,11.77-7.77-.02-.03.02-.02-14.98-16.82c4.01-3.23,8.01-6.44,12.04-9.72,2.47-2.01,4.9-4.03,7.35-6.05l14.58,16.26,11.74-7.8-.02-.03.02-.02-15.27-17.04-3.06,2.03c5.94-4.94,11.8-9.86,17.62-14.78l18,14.03,9.96-9.46-.03-.02.03-.02-17.36-13.53c3.74-3.2,7.42-6.39,11.1-9.58l16.05,15.71,11.14-8.43-.03-.03.03-.02-16.51-16.16-3.27,2.47c4.14-3.62,8.25-7.22,12.3-10.81l18.26,14.23,9.96-9.46-.02-.02.02-.02-17.86-13.92c3.89-3.48,7.72-6.93,11.52-10.37l20.21,12.21,8.52-10.45h-.02s.02-.04.02-.04l-18.4-11.11c4.71-4.31,9.36-8.58,13.92-12.8l16.79,14.45,10.49-9.03-.03-.02.03-.02-17.18-14.79c5.47-5.11,10.85-10.18,16.07-15.14l15.56,14.61,10.94-8.63-.03-.02.03-.02-16.49-15.49c4.15-3.98,8.21-7.9,12.19-11.76l19.83,12.46,8.75-10.31-.02-.02.02-.03-18.7-11.74c4.78-4.68,9.36-9.22,13.84-13.67l16.56,10.4c-9.54,13.55-19.92,28.02-31.07,43.17-.89,1.21-1.79,2.43-2.69,3.65-4.22,5.72-8.55,11.53-12.98,17.41-1.25,1.66-2.5,3.32-3.76,4.99-4.12,5.45-8.32,10.95-12.6,16.51-1.52,1.97-3.04,3.94-4.58,5.93-3.5,4.51-7.05,9.05-10.64,13.61-2.39,3.04-4.79,6.08-7.23,9.14-2.65,3.32-5.32,6.66-8.02,10-2.39,2.96-4.81,5.94-7.23,8.91-3.66,4.49-7.35,8.98-11.09,13.48-2.37,2.86-4.76,5.71-7.16,8.57-1.94,2.31-3.87,4.63-5.83,6.94-2.04,2.4-4.06,4.74-6.09,7.11-2.88,3.36-5.76,6.71-8.63,10.01-2.75,3.17-5.51,6.32-8.25,9.44-4.39,4.98-8.78,9.9-13.14,14.74-2.59,2.87-5.17,5.67-7.75,8.49-2.9,3.17-5.8,6.3-8.69,9.4-2.84,3.05-5.68,6.09-8.51,9.07-4.07,4.29-8.12,8.52-12.16,12.67-2.42,2.49-4.83,4.95-7.24,7.39-3.61,3.66-7.21,7.26-10.79,10.8-2.84,2.81-5.67,5.57-8.49,8.31-3.37,3.27-6.72,6.49-10.07,9.66-2.14,2.03-4.29,4.07-6.42,6.05-4.52,4.21-9.02,8.34-13.5,12.37-2,1.8-4,3.56-5.99,5.32-3.46,3.06-6.9,6.06-10.34,9.01-1.29,1.11-2.58,2.23-3.86,3.32v-1.09h.33v-.61h-1.4v-1.24h-1.06c-1.72-5.2-6.56-10.1-12.68-11.8v-.82h-.68v-2.4h1.36v-2.55h-.63l-1.92-6.57h-.56c0-1.23-.99-2.22-2.22-2.22s-2.22.99-2.22,2.22h-.49l-1.92,6.57h-.69v2.55h1.4v2.4h-.68v.83c-6.1,1.71-10.93,6.61-12.65,11.79h-1.06v1.24h-1.4v.61h.33v1.93h0v.04h1.03v5.73h-3.96v3.02h2.6v8.14l-14.11.84h-4.3v4.65h5.53v17.26c-.79.56-1.57,1.11-2.36,1.65-3.79,2.66-7.56,5.22-11.31,7.73-1.78,1.18-3.56,2.38-5.32,3.53-3.28,2.14-6.53,4.16-9.77,6.17-1.55.96-3.11,1.96-4.65,2.89v-1.12h1.12v-1.37h-1.73v-2.53h.49v-.88h.14v-.3h-.61v-.55h-.46c-.75-2.32-2.87-4.51-5.54-5.27v-.36h-.3v-1.05h.59v-1.16h-.28l-.84-2.93h-.24c0-.55-.43-.99-.97-.99s-.97.44-.97.99h-.22l-.84,2.93h-.3v1.12h0v.04h.61v1.05h-.3v.37c-2.67.76-4.78,2.95-5.53,5.26h-.46v.55h-.61v.3h.14v.88h.45v2.53h-1.73v1.33h0v.04h1.14v3.52h-6.51l-8.93,15.05-3.74,1.51.02.04h-.02s.31.57.31.57c-.36.17-.72.36-1.07.53-3.29,1.57-6.56,3.02-9.81,4.45-1.12.49-2.25,1.03-3.36,1.51-4.17,1.78-8.31,3.42-12.41,4.97-1.83.69-3.64,1.29-5.46,1.94-2.36.84-4.72,1.68-7.06,2.44-2.09.68-4.15,1.28-6.21,1.9-2.01.6-4.03,1.2-6.02,1.74-2.21.6-4.4,1.15-6.58,1.67-1.79.43-3.58.84-5.36,1.23-2.3.5-4.59.96-6.86,1.38-1.58.29-3.15.54-4.73.79-2.4.38-4.8.76-7.17,1.05-1.29.16-2.57.26-3.86.4-2.59.27-5.19.54-7.75.69-.31.02-.62.01-.93.03-3.27.18-6.52.3-9.74.3v2.21h0v.04c3.17,0,6.4-.16,9.63-.34.39-.02.78-.02,1.18-.04,2.56-.16,5.15-.43,7.74-.69,1.33-.13,2.65-.24,3.99-.41,2.38-.29,4.78-.67,7.19-1.05,1.61-.25,3.21-.51,4.83-.8,2.29-.42,4.59-.89,6.9-1.38,1.8-.39,3.6-.8,5.42-1.24,2.21-.53,4.42-1.08,6.65-1.68,2.01-.54,4.03-1.14,6.06-1.74,2.09-.62,4.18-1.23,6.3-1.92,2.34-.76,4.7-1.6,7.06-2.43,1.85-.65,3.7-1.27,5.56-1.97,3.83-1.44,7.69-2.98,11.57-4.62,1.38-.58,2.77-1.21,4.16-1.81,3.34-1.46,6.68-2.95,10.06-4.55.35-.16.68-.3,1.03-.46l-1.47,2.47h.03l-.03.04h3.07l7.77,14.29,2.5-1.01v16.41h923.62v-29.69h13.34l-.03-.04h.03l-2.47-4.16c.49.24.96.44,1.45.67,3.72,1.8,7.41,3.51,11.08,5.14.92.41,1.84.84,2.75,1.23,4.32,1.88,8.61,3.64,12.87,5.28.22.09.45.18.67.27,4.53,1.73,9.02,3.32,13.47,4.77.96.32,1.91.57,2.87.87,3.25,1.02,6.49,2,9.71,2.87,1.76.48,3.5.9,5.25,1.33,2.36.58,4.71,1.15,7.04,1.65,2.03.44,4.05.84,6.07,1.22,1.98.37,3.96.71,5.92,1.02,2.18.35,4.37.68,6.53.95,1.69.21,3.37.37,5.05.53,2.33.23,4.67.48,6.98.62,1.13.07,2.25.07,3.37.12,2.56.11,5.14.28,7.66.28v-2.25c-6.86,0-13.86-.43-20.98-1.25-.39-.05-.78-.1-1.17-.15-3.05-.37-6.13-.83-9.23-1.35-.68-.12-1.36-.23-2.05-.36-2.87-.51-5.75-1.1-8.66-1.74-.78-.17-1.55-.33-2.33-.51-3.01-.7-6.04-1.47-9.08-2.31-.62-.17-1.23-.32-1.85-.49-6.88-1.94-13.88-4.25-20.96-6.88l16.9-4.26v-.04s0,0,0,0l-3.42-12.91-33.07,9.16c-.57-.25-1.13-.51-1.7-.76-3.65-1.66-7.33-3.41-11.04-5.24-.75-.37-1.51-.74-2.26-1.12l-4.42-7.45,10.16-1.52v-.04s0,0,0,0l-1.71-13.16-18.22,3.16v-2.35h.49v-.88h.14v-.25h0v-.04h-.61v-.55h-.46c-.22-.69-.6-1.35-1.04-1.98-1.05-1.5-2.62-2.76-4.51-3.29v-.36h-.3v-1.05h.59v-.04h0v-1.12h-.28l-.84-2.93h-.24c0-.27-.11-.52-.28-.7-.18-.18-.42-.29-.69-.29h0c-.27,0-.51.11-.69.29-.18.18-.28.43-.28.7h-.22l-.74,2.58-.1.36h-.3v1.12h0s0,0,0,0v.04h.61v.62h0v.43h-.3v.04h0v.32c-2,.57-3.69,1.95-4.72,3.57-.34.54-.62,1.11-.81,1.69h-.46v.55h-.61v.3h.14v.88h.45v2.53h-1.73v1.02c-1.53-.94-3.07-1.9-4.61-2.87-2.24-1.4-4.47-2.79-6.72-4.24-.45-.29-.91-.61-1.36-.9l19.37-3.87.5-12.95h0s0-.04,0-.04l-35.27,6.46c-.78-.54-1.56-1.09-2.34-1.64v-17.71h5.53v-4.61h0v-.04h-4.3l-4.26-.26.06-.74h0v-.04s-9.39-.3-9.39-.3v-5.13h.04v-2.52h2.56v-3.02h-3.96v-3.47h0v-2.26h1.11v-1.98h.33v-.56h0v-.04h-1.4v-1.24h-1.06c-.43-1.3-1.06-2.58-1.85-3.8-1.58-2.43-3.83-4.61-6.51-6.17-1.34-.78-2.79-1.41-4.32-1.83v-.82h-.68v-1.05h0v-1.35h1.36v-2.55h-.63l-1.92-6.57h-.56c0-1.23-.99-2.22-2.22-2.22s-2.22.99-2.22,2.22h-.5l-1.92,6.57h-.69v2.55h1.4v2.4h-.68v.04h0v.78c-4.75,1.33-8.7,4.6-11.04,8.42l-12.09.18c-.7-.61-1.4-1.2-2.11-1.81-.99-.86-1.98-1.74-2.96-2.61-2.12-1.87-4.25-3.76-6.38-5.66l18.01-.09v-.04s0,0,0,0l-1.13-13.49-31.31.47c-4.21-3.91-8.44-7.92-12.68-12l19.32-.1v-.04s0,0,0,0l-1.13-13.49-31.67.48c-2.17-2.15-4.34-4.29-6.52-6.48-.54-.54-1.08-1.08-1.63-1.63-.77-.78-1.55-1.58-2.32-2.36l18.71,1.1.03-13.53h0v-.04l-32.39-1.57c-1.31-1.37-2.62-2.73-3.93-4.11-1.82-1.91-3.64-3.83-5.46-5.77-1.05-1.12-2.11-2.26-3.16-3.39l19.87.7,1.18-12.88h0v-.04s-33.52-1.29-33.52-1.29c-.98-1.07-1.95-2.13-2.93-3.21-2.28-2.51-4.56-5.05-6.85-7.6-1.53-1.71-3.06-3.42-4.6-5.15l12.4,2.23,3.3-12.45h-.01s.01-.04.01-.04l-28.94-4.81c-3.6-4.14-7.2-8.34-10.81-12.58l18.72,2.4,1.29-13.48h0s0-.04,0-.04l-32.66-3.85c-3.5-4.19-6.97-8.38-10.4-12.56l19.31,2.48,1.29-13.48h0s0-.04,0-.04l-32.71-3.86c-3.21-3.99-6.4-7.97-9.54-11.94l19.23,2.47,1.29-13.48h0s0-.04,0-.04l-32.2-3.8c-1.93-2.47-3.86-4.94-5.75-7.39l19.41,2.49,1.29-13.48h0s0-.04,0-.04l-32.06-3.78c-2.34-3.08-4.67-6.15-6.96-9.19l16.22.2,1.29-13.48h0s0-.04,0-.04l-28.63-1.56c-3.38-4.56-6.69-9.06-9.94-13.51l.64.73,16.77.21,1.29-13.48h0v-.04s-28.98-1.58-28.98-1.58c-3.64-5.05-7.15-9.97-10.59-14.82l.16-.51h-.01s.01-.04.01-.04l-.66-.14c-4.61-6.5-9.03-12.8-13.26-18.88l1.42-5.29h-.01s.01-.04.01-.04l-6.28-1.67c-2.82-4.08-5.52-8.02-8.14-11.86l2.95-11h-.01s.01-.04.01-.04l-12.72-3.38c-2.13-3.17-4.17-6.21-6.13-9.16l3.9,1,1.58-5.9c.59.62,1.14,1.2,1.74,1.82l-.48.02.05.04h-.05s2.75,2.31,2.75,2.31c47.77,49.72,133.14,134.46,236.2,218.54,93.54,76.32,183.1,137.13,266.18,180.75,103.96,54.58,198.05,82.26,279.66,82.26v-2.25c-5.06,0-10.16-.11-15.31-.32ZM936.25,236.53c4.85,6.66,9.85,13.45,15,20.38.59.79,1.17,1.57,1.76,2.36,7.96,10.67,16.24,21.59,24.84,32.73.9,1.16,1.81,2.33,2.71,3.5,4.73,6.1,9.54,12.23,14.45,18.42,1.23,1.55,2.45,3.09,3.69,4.64,8.61,10.8,17.45,21.67,26.52,32.59,1.77,2.12,3.55,4.25,5.33,6.37,2.22,2.65,4.4,5.29,6.64,7.94,7.69,9.07,15.32,17.84,22.92,26.47.62.7,1.23,1.4,1.85,2.1,3.42,3.86,6.82,7.68,10.22,11.45.87.96,1.73,1.92,2.6,2.87,3.36,3.71,6.71,7.39,10.05,11,.6.65,1.19,1.28,1.79,1.93,10.29,11.11,20.5,21.8,30.62,32.06,1.42,1.44,2.84,2.89,4.26,4.32,2.61,2.62,5.21,5.2,7.81,7.77,1.71,1.69,3.42,3.37,5.13,5.04,2.49,2.43,4.97,4.84,7.44,7.21,1.79,1.71,3.56,3.39,5.34,5.08,1.83,1.73,3.68,3.52,5.51,5.23h-.05s.05.04.05.04h-.05s.82.68.82.68c.44.41.87.78,1.31,1.19,5.03,4.67,10.03,9.19,15,13.64,1.69,1.51,3.38,3.01,5.06,4.49,5.08,4.47,10.13,8.83,15.15,13.06.48.4.97.85,1.45,1.25v1.58h-3.96v3.02h2.6v5.8l-17.2-1.03h-10.56v-19.79h4.45v-.04h0v-4.61h-14.28l-54.6-3.96h-12.9v-19.1h3.4v-4.61h0v-.04h-3.4l-34.09-3.96v-6.21l4.65-9.21h-.02s.02-.04.02-.04l-4.65-1.66v-4.77h3.66v-6.28h-15.49v-13.77h-2.57l-10.49-3.74c-.71-1.99-1.47-3.97-2.26-5.95-.24-.6-.48-1.21-.73-1.81-1.28-3.09-2.66-6.17-4.13-9.23-.28-.58-.57-1.16-.86-1.74-.2-.4-.4-.81-.6-1.21l1.91-3.78h-.02s.02-.04.02-.04l-4.82-1.72c-.45-.83-.89-1.67-1.36-2.49-.04-.08-.08-.15-.12-.23-1.76-3.1-3.65-6.16-5.59-9.2-.37-.57-.73-1.14-1.1-1.71-.94-1.43-1.9-2.85-2.88-4.26l3.51-6.95h-.02s.02-.04.02-.04l-11.64-3.96c-.93-1.18-1.87-2.35-2.83-3.52-.09-.1-.17-.21-.25-.31-2.37-2.84-4.84-5.62-7.38-8.36-.47-.51-.94-1.02-1.42-1.53-.99-1.05-2-2.09-3.01-3.13l8.98,2.68,4.15-13.05h-.01s.01-.04.01-.04l-31.84-9.13c-2.56-4.66-5.09-9.31-7.59-13.94l18.76,5.59,4.15-13.05h-.01s.01-.04.01-.04l-31.8-9.12c-2.29-4.32-4.55-8.62-6.78-12.89l17.9,5.33,4.15-13.05h-.01s.01-.04.01-.04l-30.6-8.77c-1.42-2.78-2.82-5.53-4.22-8.28l17.28,5.15,4.15-13.05h-.01s.01-.04.01-.04l-29.71-8.52c-1.72-3.46-3.43-6.89-5.1-10.29l15.16,2.64,4.15-13.05h-.01s.01-.04.01-.04l-27.34-5.98c-1.33-2.74-2.64-5.45-3.93-8.14l15.67,2.73,3.05-9.58c5.34,7.51,11.01,15.36,16.81,23.33.11.15.22.3.33.45ZM1259.7,573.16c2.62,1.69,5.22,3.3,7.81,4.91,1.97,1.23,3.96,2.54,5.92,3.72v.4h-31.56v-20.9l.76.4c.58.4,1.14.76,1.72,1.16,3.41,2.36,6.8,4.64,10.18,6.88,1.73,1.15,3.46,2.31,5.18,3.43ZM409.88,573.36c3.94-2.53,7.9-5.11,11.9-7.83l6.88,10.79v5.88h-23.65l-3.11-3.78c1.3-.81,2.62-1.66,3.92-2.48,1.35-.85,2.7-1.69,4.06-2.56ZM494.42,508.54c.77-.68,1.53-1.32,2.3-2l11.46,8.91v16.23h-10.1l-3.03.18-12.04-13.41c1.69-1.44,3.4-2.96,5.1-4.43,2.1-1.81,4.2-3.63,6.31-5.48ZM520.43,484.84c1.17-1.1,2.32-2.13,3.49-3.24l14.84,14.49,11.13-8.44-.03-.02.03-.02-15.99-15.62c.77-.75,1.54-1.53,2.31-2.28,2.02-1.97,4.04-3.98,6.07-5.99,2-1.98,3.99-3.91,6.01-5.93l15.17,14.73,11.1-8.47-.02-.02.03-.02-16.57-16.08c.77-.79,1.54-1.61,2.31-2.4,1.11-1.15,2.23-2.31,3.34-3.47,2.23-2.31,4.45-4.6,6.69-6.95l19.62,13.32,9.19-10.02-.03-.02.03-.03-19.45-13.2c.88-.95,1.77-1.94,2.65-2.89,2.45-2.64,4.9-5.32,7.36-8,1.84-2.01,3.67-3.96,5.52-6l17.04,14.54,10.45-9.06-.03-.02.03-.02-17.75-15.15-4.55,3.95c1.24-1.39,2.5-2.83,3.74-4.23,2.75-3.08,5.5-6.19,8.25-9.33,1.11-1.26,2.2-2.47,3.31-3.74l18.53,12.2,9.01-10.14-.02-.02.02-.03-18.65-12.28c2.7-3.14,5.4-6.27,8.11-9.47,1.94-2.29,3.85-4.58,5.78-6.87l21.99,9.74,6.79-11.35h-.02s.02-.04.02-.04l-20.01-8.87c1.26-1.53,2.49-3.04,3.74-4.57,1.67-2.03,3.33-4.06,4.98-6.09,1.9-2.33,3.84-4.66,5.72-6.98l18.86,10.84,8.24-10.62h-.02s.02-.04.02-.04l-18.64-10.72c.8-1,1.57-1.99,2.36-2.99,3.23-4.06,6.42-8.1,9.57-12.12.81-1.04,1.66-2.09,2.47-3.12l20.31,11.04,7.92-10.79h-.02s.02-.04.02-.04l-19.96-10.85c2.13-2.76,4.19-5.47,6.28-8.21.66-.86,1.32-1.73,1.98-2.59,1.48-1.94,3-3.91,4.46-5.83l19.68,10.62,7.88-10.82h-.02s.02-.04.02-.04l-19.46-10.5c3.46-4.62,6.87-9.2,10.21-13.72l18.26,11.47,8.75-10.31-.02-.02.02-.03-19.05-11.96c2.75-3.77,5.35-7.39,8-11.06.67-.93,1.35-1.87,2.02-2.79,1.1-1.53,2.28-3.14,3.37-4.65l18.28,11.48c-7.46,15.32-15.47,31.41-23.98,48.01l-.18.35c-1.93,3.77-3.89,7.57-5.88,11.39-.09.18-.19.36-.28.54-5.95,11.45-12.11,23.09-18.46,34.82-.14.26-.28.53-.43.79-1.7,3.14-3.43,6.29-5.16,9.44-.72,1.31-1.44,2.62-2.16,3.93-.77,1.39-1.55,2.79-2.32,4.18-.14.12-.27.24-.4.35-1.27,1.09-2.53,2.19-3.77,3.31-.66.6-1.32,1.2-1.97,1.81-1.23,1.13-2.45,2.27-3.65,3.43-.64.61-1.26,1.24-1.89,1.86-1.19,1.17-2.37,2.35-3.52,3.54-.61.63-1.2,1.27-1.8,1.9-1.14,1.21-2.28,2.43-3.39,3.66-.57.63-1.13,1.28-1.69,1.92-1.11,1.26-2.21,2.52-3.29,3.8-.53.62-1.03,1.26-1.55,1.89-1.08,1.31-2.15,2.63-3.19,3.96-.48.61-.94,1.23-1.41,1.85-1.04,1.37-2.08,2.74-3.09,4.12-.43.59-.84,1.19-1.27,1.79-1.01,1.42-2.02,2.85-2.98,4.29-.38.57-.74,1.14-1.12,1.71-.98,1.49-1.95,2.97-2.88,4.47-.32.52-.63,1.05-.95,1.57-.95,1.57-1.89,3.13-2.79,4.71-.25.44-.48.88-.72,1.31-.94,1.68-1.86,3.35-2.74,5.04-.17.32-.32.64-.48.96-.93,1.82-1.85,3.64-2.71,5.47-.03.06-.05.11-.07.17-2.98,6.34-5.57,12.76-7.72,19.22h-11.73v13.77h-15.49v6.28h3.66v21.89h0s-34.49,3.96-34.49,3.96h-3.4v4.61h0v.04h3.4v19.1h-12.54l-53.33,3.84-12.62-9.82c1.03-.94,2.07-1.94,3.1-2.88,3.42-3.14,6.86-6.33,10.3-9.58ZM1273.43,579.03c-.19-.12-.39-.24-.58-.36h.58v.36ZM723.47,316.08c.73-1.38,1.49-2.77,2.22-4.14l19.1,6.39c-.69.36-1.38.72-2.06,1.09-1.49.8-2.96,1.61-4.42,2.45-.82.46-1.63.93-2.44,1.4-1.45.85-2.89,1.72-4.32,2.6-.8.49-1.59.99-2.38,1.49-1.42.9-2.82,1.82-4.22,2.75-.55.37-1.11.73-1.66,1.11l-6.73-2.25c1.92-3.55,3.79-7.07,5.68-10.6.41-.76.82-1.53,1.23-2.29ZM736.59,291.12c1.32-2.55,2.67-5.12,3.97-7.64l22.16,7.34,5.33-11.91h-.02s.02-.04.02-.04l-21.49-7.12c2.21-4.35,4.39-8.68,6.53-12.95l23.15,6.37,4.52-12.16h-.01s.01-.04.01-.04l-21.78-5.99c1.6-3.23,3.1-6.33,4.64-9.48.4-.81.79-1.62,1.19-2.42,1.1-2.25,2.25-4.58,3.33-6.8l21.17,8.16,2.17-4.16v6.88h-3.15v26.08h3.15v28.36h-7.5v9.18c-.63.18-1.25.36-1.87.55-.91.26-1.82.52-2.72.79-1.65.51-3.29,1.05-4.92,1.6-.9.3-1.8.59-2.69.91-1.62.57-3.23,1.17-4.84,1.78-.88.33-1.76.66-2.63,1.01-1.59.63-3.16,1.29-4.73,1.96-.87.37-1.75.74-2.61,1.12-1.55.69-3.09,1.4-4.62,2.12-.86.4-1.71.81-2.57,1.23-.36.18-.73.34-1.09.52l4.08-9.04h-.02s.02-.04.02-.04l-20.9-6.99c1.06-2.03,2.09-4.03,3.14-6.05.54-1.03,1.07-2.06,1.6-3.09ZM911.35,247.78c.95,1.92,1.86,3.79,2.82,5.72h-.05s.03.04.03.04h-.03s.46.79.46.79c.56,1.12,1.16,2.29,1.72,3.42,2.15,4.3,4.34,8.65,6.56,13.03,1.42,2.81,2.86,5.63,4.31,8.47,2.32,4.53,4.67,9.1,7.06,13.7,1.43,2.76,2.89,5.53,4.34,8.31,1.89,3.6,3.8,7.22,5.73,10.85,1.97,3.71,3.95,7.42,5.96,11.15,1.95,3.62,3.92,7.25,5.9,10.89,1,1.84,1.97,3.66,2.98,5.5-.76-.59-1.54-1.16-2.3-1.75-.55-.42-1.11-.85-1.67-1.26-3-2.25-6.07-4.42-9.2-6.52-.48-.32-.96-.63-1.45-.94-3.13-2.06-6.31-4.05-9.55-5.95-.2-.12-.39-.24-.59-.35-3.35-1.94-6.77-3.78-10.23-5.54-.62-.32-1.24-.63-1.86-.94-3.43-1.7-6.91-3.33-10.45-4.84-.5-.22-1.01-.42-1.51-.63-3.49-1.46-7.03-2.85-10.61-4.12-.27-.09-.53-.2-.8-.29-3.7-1.29-7.46-2.46-11.25-3.54-.37-.11-.73-.24-1.11-.35v-9.01h0v-.04h-7.5v-28.36h3.15v-14.41h0v-3.87h0v-7.75h0v-.04h-3.15v-11.89h-2.98v-12.32h-2.63v-12.32h-2.01v-4.42h0v-7.91h-3.55v-12.28h0v-.04h-2.26v-12.32h-1.93v-12.28h0v-.04h-1.5v-10.18c11.4,25.66,27.91,61.65,48.02,102.41.37.75.74,1.5,1.11,2.26ZM790.34,170.16l-.02-.02.02-.03-6.93-4.35c1.04-1.54,2.08-3.06,3.08-4.55l8.39,4.17c-3.5,7.68-7.3,15.92-11.35,24.62l-13.22-5.1c1.88-2.72,3.74-5.41,5.54-8.04l5.75,3.61,8.75-10.31ZM859.63,137.26c.53,1.19,1.09,2.46,1.64,3.71h-1.64v-3.71ZM794.43,227.23h-.37l.37-.72v.72ZM854.39,128.64h-.42v-4.31c.26.61.51,1.19.79,1.82l-.37,2.5ZM797.14,166.5l7.74,3.85v7.59h-2.26v10.75l-13.61-4.51c2.86-6.16,5.57-12.06,8.12-17.67ZM810.9,136.55v4.42h-2.28c.79-1.77,1.55-3.5,2.28-5.17v.75ZM806.81,156.52l-1.61-.8,1.61-1.67v2.47ZM807.54,153.29l.77-.8v.8h-.77ZM808.31,148.87v1.54l-2.96-2.11c1.02-2.29,2.01-4.5,2.96-6.64v7.21ZM816.56,124.01v4.64h-.42l-.53-3.6c.16-.36.3-.69.45-1.04h.5ZM816.56,116.46c-.52,1.22-1.07,2.48-1.65,3.84l-.27-1.82c.67-1.04,1.32-2.06,1.92-3v.98ZM812.62,125.58c-.43.98-.88,2.03-1.34,3.06h-.38v.86c-2.25,5.16-4.82,10.95-7.65,17.3l-4.84-3.44c5.35-8.08,9.94-15.12,13.72-20.99l.48,3.21ZM788.66,197.78l10.42,3.45v1.35h-2.01v12.32h-2.63v9.45l-20.61-7.95c2.22-4.64,4.38-9.18,6.48-13.63l4.79,1.84,3.56-6.85ZM855.53,120.9h-.3c-.44-1.03-.86-1.99-1.27-2.94v-1.47c.56.88,1.19,1.85,1.8,2.81l-.24,1.6ZM781.3,164.44l-9.68-6.08c3.5-3.6,6.82-7.04,10-10.34l7.26,5.17c-2.41,3.6-4.94,7.36-7.58,11.25ZM710.49,340.67c-.11.09-.21.18-.32.26-.08.07-.16.13-.25.2.1-.18.2-.37.3-.55l.27.09ZM856.33,115.55c-.68-1.06-1.29-2.02-1.89-2.97.62.68,1.33,1.44,2.01,2.18l-.12.79ZM856.53,111.26h.43l-.06.41c-.12-.13-.26-.28-.37-.41ZM816.3,111.26c-.68,1.07-1.43,2.24-2.21,3.48l-.15-1.01c.8-.87,1.56-1.69,2.27-2.47h.1ZM811.59,118.63c-4.03,6.27-9.12,14.11-15.2,23.29l-5.31-3.78c8.2-8.62,14.97-15.88,20.2-21.54l.3,2.03ZM763.19,190.8l-14.52-9.12c4.62-4.64,9.12-9.18,13.36-13.5l11.71,7.36c-3.36,4.9-6.9,10.01-10.55,15.26ZM758.13,203.47l5.9-6.96,13.91,5.36c-1.64,3.47-3.32,7-5.03,10.59-.33.68-.64,1.35-.97,2.04-.85,1.77-1.73,3.59-2.59,5.39l-16.36-10.28c1.55-2.18,3.09-4.36,4.59-6.49l.55.34ZM892.56,203.19c-1.48-3.12-2.93-6.2-4.34-9.22l15.97,4.09,1.26-4.72c3.38,4.85,6.89,9.84,10.51,14.95l-23.4-5.11ZM880.65,177.69c-1.3-2.81-2.56-5.56-3.79-8.26l14.68,3.76c2.01,2.94,4.07,5.95,6.2,9.03l-17.09-4.54ZM869.5,153.21c-1.31-2.9-2.57-5.73-3.77-8.42l8.05,2.06c1.94,2.92,3.97,5.96,6.09,9.11l-10.37-2.75ZM859.63,128.89v-.25h-.95l-.08-.02c-.29-.65-.57-1.31-.85-1.94l.52-3.5c1.31,2.03,2.7,4.18,4.19,6.47l-2.84-.75ZM858.82,119.44l.27-1.81c3.85,4.16,8.46,9.1,13.83,14.79l-6.87-1.82c-2.69-4.12-5.1-7.84-7.23-11.16ZM822.89,63.45h-.4l.3-1.14h.09v1.14ZM835.85,26.34h2.48l4.16,15.67h-3.68c-.03-.06-.06-.13-.1-.19-.07-.14-.14-.28-.19-.43-.1-.26-.23-.49-.37-.71.07-.02.13-.07.19-.1.1-.05.21-.06.29-.14.14-.14.23-.33.23-.54v-.07h0v-.04s-.02-.07-.02-.11c0-.09-.07-.15-.1-.22-.04-.1-.06-.21-.14-.29-.14-.14-.32-.24-.52-.24h-.33s.01-.08.01-.12h0s0-.01,0-.02c0,0,0-.02,0-.02,0-.01,0-.03,0-.04h0s0-.02,0-.03c0-.21-.03-.41-.08-.6-.02-.08-.04-.15-.07-.23,0-.03-.02-.05-.03-.07-.02-.07-.05-.12-.08-.19-.02-.05-.04-.1-.06-.14-.01-.02-.03-.05-.04-.08-.01-.02-.02-.04-.03-.06,0,0,0-.01,0-.02-.03-.06-.1-.08-.13-.14-.17-.24-.36-.44-.59-.61-.05-.04-.08-.1-.13-.13.01-.03,0-.07.02-.1.1-.26.15-.57.17-.92,0-.05.02-.07.02-.12,0,0,0-.02,0-.03,0,0,0-.01,0-.02,0-.01,0-.03,0-.04h0s0,0,0,0c0-.22-.02-.44-.05-.65-.01-.08-.03-.16-.04-.23,0-.02,0-.03-.01-.05-.01-.06-.03-.11-.04-.17-.01-.05-.03-.11-.04-.17,0-.03-.02-.05-.03-.08-.02-.06-.04-.11-.06-.16-.01-.03-.02-.06-.03-.08-.03-.07-.07-.14-.1-.2-.01-.03-.03-.06-.04-.09,0,0,0-.01,0-.02-.05-.08-.1-.15-.15-.22-.04-.05-.08-.1-.13-.15-.04-.05-.08-.11-.12-.14v-6.42ZM844.06,58.57v-.04h0v-.04h-1.1c-.55-.67-1.03-1.4-1.47-2.19-.23-.42-.42-.89-.63-1.33-.17-.36-.35-.7-.5-1.07h5.29l1.04,3.89.43,1.63h-3.06v-.84h0ZM840.07,53.24c-.03-.08-.07-.15-.1-.23-.06-.17-.15-.32-.23-.47-.04-.08-.07-.15-.11-.23-.09-.17-.19-.33-.29-.49,0-.01-.02-.02-.03-.04-.03-.04-.06-.08-.09-.12-.03-.03-.05-.07-.08-.1-.05-.07-.11-.13-.16-.2-.04-.05-.07-.1-.11-.14,0-.01-.02-.02-.03-.04-.14-.15-.29-.28-.44-.41-.04-.03-.07-.07-.11-.11,0,0-.01-.01-.02-.02-.06-.05-.13-.09-.19-.14-.17-.12-.35-.23-.53-.32-.02-.01-.04-.02-.06-.04.06-.06.08-.15.14-.21.25-.28.46-.6.63-.98.03-.07.09-.11.12-.18h0c.38-1.02.94-1.9,1.5-2.76h.37c.45,0,.81-.36.81-.81v-.11s-.02-.07-.02-.1c0-.09-.07-.15-.1-.22-.04-.11-.06-.22-.14-.3-.14-.14-.32-.24-.52-.24h-.24c-.33-.5-.61-1.03-.87-1.59h3.49l2.81,10.57h-5.41ZM844.77,62.31h.82v1.14h-.82v-1.14ZM847.8,62.31h.09l.3,1.14h-.4v-1.14ZM830.62,44.29h-.34c-.45,0-.81.36-.81.81v.11c0,.45.36.81.81.81h.22c.57.86,1.13,1.74,1.51,2.76.02.05.07.08.09.13.21.49.5.91.85,1.24-.56.26-1.05.66-1.48,1.16,0,0,0,0-.01.01-.42.49-.8,1.05-1.04,1.71-.03.08-.07.15-.1.23h-5.12l2.82-10.62h3.49c-.27.57-.55,1.13-.89,1.63ZM851.58,63.45v-1.14h1.58v1.14h-1.58ZM834.71,32.69c-.3.18-.55.53-.73.99,0,.02-.01.04-.02.05-.17.44-.29.93-.29,1.5,0,.01,0,.02,0,.03,0,0,0,.01,0,.02,0,.08.02.12.03.19.02.44.1.79.23,1.07-.67.49-1.14,1.28-1.14,2.22,0,0,0,.02,0,.03,0,0,0,.01,0,.02,0,.06.02.11.03.16h-.32c-.45,0-.81.36-.81.81v.07s0,0,0,0v.04c0,.45.37.81.81.81h.05c-.14.23-.28.46-.38.73-.03.08-.07.16-.11.24-.07.12-.14.25-.21.38h-3.67l4.18-15.71h2.35v6.35ZM830.04,53.89c-.11.27-.23.52-.35.79-.22.49-.44.99-.68,1.46-.47.86-.99,1.67-1.59,2.39h-1.1v.88h-2.76l1.47-5.52h5.01ZM825.1,63.45v-1.14h.51v1.14h-.51ZM819.11,62.31v1.14h-1.58v-1.14h1.58ZM479.58,518.24v-.07h.08s-.06.05-.08.07ZM395.22,579.79h0s0,0,0,0c0,0,0,0,0,0Z"/>
</svg>