<?xml version="1.0" encoding="UTF-8"?>
<svg id="Layer_1" data-name="Layer 1" xmlns="http://www.w3.org/2000/svg" viewBox="0 0 1110.5 678.19">
  <path d="M490,600.69l5-144c0-2-6-6-6-6l1-3s1-23,1-25,1-4,2-4,7-5,6-6c-.63-.63-.47-1.64-.26-2.32.22-.71.34-1.45.41-2.19.23-2.65.6-8.01-.15-9.49-1-2-3-3-3-3-6-2-4-8-4-8l.88-9.73c.07-.73.59-1.34,1.3-1.52,3.6-.91,5.52-2.92,6.33-4.01.31-.42.49-.91.53-1.43.2-2.82.95-13.45.95-14.32,0-.66-.43-2.18-.73-3.15-.19-.63.03-1.3.58-1.67,2.11-1.43,7.31-3.06,9.79-3.79.79-.23,1.58-.51,2.33-.85,2.22-.98,4.04-1.33,5.08-1.47.61-.08,1.14-.46,1.41-1.01l1.25-2.5c.17-.33.2-.72.07-1.07-.29-.8-.26-1.4-.14-1.82s.47-.7.89-.78c4.78-.92,7.54-3.08,8.27-3.72.13-.11.24-.24.34-.38,1.72-2.4,1.18-3.68.53-4.3-.35-.34-.87-.37-1.32-.19-1.08.43-2.35-.31-2.35-.31l-39-31s-7-4-8-8-3-1-3-1c-2,2-4.74,2.92-4.74,2.92l-78.26,18.08s-3,1-5,0c-.75-.38-1.36-.33-1.83-.12-.74.32-1.17,1.11-1.17,1.92v3.94c0,.71.63,1.26,1.34,1.16.53-.08,1.09-.21,1.41-.45.25-.19.57-.25.83-.09l6.69,4.18c.29.18.24.62-.09.73l-1.36.45c-.56.19-.96.69-.98,1.28-.04,1.05.25,2.73,2.16,4,2.65,1.77,14.67,9,17.43,10.66.33.2.46.6.31.96l-.46,1.1c-.18.18-.29.43-.31.68l-.92,15.61c-.04.63.22,1.24.69,1.65l6.5,5.68c.48.42.75,1.02.75,1.66v12.77c0,.72-.47,1.35-1.16,1.56-2.04.61-6.25,2.03-8.22,3.95-.41.4-.63.97-.67,1.54l-.9,13.43c-.03.53.04,1.05.23,1.54.69,1.79,2.74,6.13,6.99,7.93.44.19.7.66.67,1.14l-1.88,27.29c-.03.51-.37.94-.85,1.1-1.74.6-5.89,2.28-7.78,5.02-.28.41-.44.89-.48,1.39l-8.96,135.34-2,33,75,3,19-15Z"/>
  <path d="M830,237.69l-24-26-1.57-3.94c-.22-.56-.89-.78-1.41-.47l-4.02,2.41-45,11-56.93,14.72c-.71.18-1.45.2-2.16.06l-2.52-.5c-.67-.13-1.27.45-1.16,1.12l.77,4.6c1.66,7.47,7.45,8.74,9.38,8.96.36.04.63.33.64.68.05,1.17.23,3.61.98,4.36.82.82,9.77,7.06,12.92,9.25.7.48,1.55.66,2.38.5l3.36-.65c.25-.05.47.14.47.39,0,1.28.06,4.71.87,5.52,1,1,2,1.34,2,1.34h0c-.62.41-1,1.11-1,1.86v13.8c0,2,1,2,1,2v1c0,2,4,6,4,6l1,18-2,1c-2,1-3,4-3,4v16c0,1,7,8,7,8l1,36c-3,2-5,5-5,5l8,184h76l19-14-9-160-6-7-2-37,5-4-1-16-6-6-1-20,4-4-1-20c0-2,5-2,5-2,0,0,10-1,12-3s3,0,3,0c0,0,3,2,3-1s-1-6-1-6c0,0-2-1,1-2s5-3,5-3c0,0,1-1,2,0s2,0,2,0c0,0,1-1,0-3s-1-3-1-3v-1s-2-1,0-3c0,0,0-2-1-2s2-2,2-2c0,0,2-2,0-3s-4,1-4,1c0,0-1,2-2,2s-1-1-1-2-9-9-9-9l-24-26"/>
  <path d="M971,172.69c7-6,2.81-16.54,2.81-16.54.09-.26.37-.42.64-.35,8.51,2.2,7.54,10.89,7.54,10.89,0,5.84-6.27,8.2-8.34,8.82-.57.17-1.18.17-1.73-.04-2.8-1.08-5.93-5.78-5.93-5.78l-38-44-50-57c-2-1-1-3-1-3-11-11-8-32-8-32,1-6-1-19-1-19-1.43-7.86-6.95-12.15-9.98-13.95-1.83-1.09-4.18-.98-5.84.35l-.03.02c-1.25,1-2.11,2.41-2.39,3.98-7.56,41.74-43.76,47.61-43.76,47.61l-118,40-192,59-215.29,61.15c-.8.23-1.64.26-2.45.08h0c-10.77-2.36-18.62-13.31-18.31-24.32,0-.2-.25-.26-.33-.08-1.52,3.62-6.63,18.34,4.66,30.42.46.5.86,1.06,1.14,1.68l4.57,10.06,99,60,22,15s4,1,4,5l78.26-18.08s2.74-.92,4.74-2.92c0,0,2-3,3,1s8,8,8,8l29,23s10-5,11-11,5-7,5-7l101-22,72-18s0,6,2,7c0,0,1,2,0,3s0,2,0,2c0,0,3,2,5,2,0,0,2-1,2,1l-2,2s-1,1-2,4,2,6,2,6c0,0,6,4,11-2,0,0-1,0-1-2v-13.8c0-.75.38-1.45,1-1.86h0s-1-.34-2-1.34c-.81-.81-.87-4.24-.87-5.52,0-.25-.23-.44-.47-.39l-3.36.65c-.83.16-1.69-.02-2.38-.5-3.14-2.18-12.09-8.42-12.92-9.25-.75-.75-.94-3.2-.98-4.37-.01-.36-.28-.64-.63-.68-1.92-.21-7.72-1.48-9.38-8.96l-.77-4.6c-.11-.68.49-1.26,1.16-1.12l2.52.5c.72.14,1.45.12,2.16-.06l56.93-14.72,45-11,4.04-2.43c.5-.3,1.15-.08,1.37.46l1.59,3.96,24,26,19-12,111.87-30.69c.71-.2,1.3-.72,1.57-1.4l3.37-8.42c.12-.31.31-.59.54-.82,1.1-1.08,4.52-4.62,6.39-8.73"/>
  <path d="M616.5,96.19s.73,1.47.31,2.52c-.08.21.11.42.33.4,1.49-.16,4.94-.3,3.36,2.08,0,0,0,1,1,1s2,0,1,2,2,1,2,1l27-8s-3,0-5-3c0,0-2-3-2-4s0-8,5-6c0,0,2-6,6-3,0,0,2-6,6-1,0,0,5-5,7,0,0,0,4-2,4,0s3,2,3,2c0,0,2-1,2,3,0,0-1,1,0,2s0,2,0,2c0,0,8-1,9-2s5-6,5-8c0,0,2-3,2,0,0,0-2,6,0,9l.32,2.54-179.32,55.46v-1.37c0-.31-.28-.54-.59-.48-.87.18-2.41.28-2.41-1.15v-1s-1.99,1-3.99-8.95c0-.03-.01-.07-.01-.1v-.95s.92.92.92.92c.05.05.09.11.11.18.18.52,1.07,2.9,1.97,2.9,0,0,2,1,2,2s4.8.04,4.99,0h.02s22.99-6,22.99-6c0,0,6.54-1.64,8.53-3.43.26-.24.2-.66-.12-.81-.93-.4-2.69-1.32-3.41-2.77,0,0-5.83-8.74-.26-9.95.15-.03.28-.13.34-.27.27-.63,1.17-2.28,2.7-.97.12.1.29.1.39-.02.79-.89,4.1-4.2,7.49-2.02.2.13.45.16.66.05,1.14-.57,4.94-2.12,7.48.94.11.13.29.17.44.08,1.13-.68,5.75-3.11,5.75,2.15v2c0,.59-.69.48-1.26.3-.45-.15-.83-.48-1.04-.91l-.7-1.39s-.77-1.54-2.31-.57c-.5.32-.73.94-.49,1.48s.73,1.09,1.79,1.09c2,0,2,3,2,3,0,0,0,2.59-2.41,2.96-.12.02-.14.19-.02.22,1.45.38,5.44,1.01,9.43-2.18l22-7s1-1-3-2c0,0-2,0-2-2,0-.78-.3-1.1-.67-1.21-.82-.23-1.29-1.1-1.21-1.94.22-2.24.83-5.48,2.57-5.82.21-.04.38-.21.48-.4.51-1.04,2.16-3.81,4.45-1.97.19.15.47.08.57-.14.59-1.3,2.58-4.63,6.47-1.78.18.13.44.13.59-.04.78-.82,3.29-2.9,6.47.03.15.14.38.16.55.03.61-.5,2.17-1.54,3.73-.76"/>
  <path d="M581.5,119.19c-1-2-4-9-4-9-.9,0-12.4-36.67-14.63-43.81-.14-.45.31-.86.76-.69,1.25.49,1.87.49,1.87.49,0,0-3,0-2-3s0-5,0-5c-1,0-3-5-3-7s-2-3-2-4-1-3-1-3c0-3-1-6-1-6-1,0-1,7-1,8s-2,5-2,5c0,0,1,0-1,6s0,5,0,5c0,0,1,0,1,3s-4,4-3,4,3-1,3-1c-4,32-17,65-17,65,2.47-1.06,2.64-.3,4-3,2.49-4.95,5-14,5-14l7-29,4-16s-1-1,1-4,3,1,3,1l7,24s5,15,6,20c.84,4.18,3.31,7.28,4.1,8.18.1.12.29.08.33-.07.26-.82,1.16-2.71,3.57-1.11"/>
  <path d="M628.5,104.19s-6-7-7-12-8-22-8-22l-9-23s-1-4-3-1-1,4-1,4l-3,23-4,28s-1.08,11.08-5,15c-2,2-3.23,2.03-5.49,2.8-.17.06-.32-.11-.23-.27,1.32-2.27,6.96-12.8,8.72-29.54.44-4.17,1.31-8.46,2-13,1.41-9.22,2.88-19.03,4-28,0,0-3,1-4,1s3-1,3-4v-1.57c0-.61-.32-1.23-.89-1.44-.69-.26-1.33-1.32-.11-4.98,2-6,1-6,1-6,0,0,1-2,1-4,0-.67,1-.71,1-1,0-.82.45-6.27,1-8,0,0,1,0,1,1,0,1.41,1.26,4.94,2,6,.5.72.54.23,1.21.79.42.35.79.78.79,1.21,0,3,1,3,1,5s1,7,2,7c0,0,1,.84,1,4s3,3,3,3c0,0-1,0-3-1-1.79-.89-.28,2.35,0,3,3.79,8.83,18.11,46,19,46,0,0,3,5,4,7l1.24,1.59"/>
  <path d="M686.5,87.19c-3-2-5,1-5,1,0,0-6-7-7-12s-6-17-6-17l-8-25s-1-4-3-1c-1.24,1.85-1.33,2.94-1.21,3.51s.16,1.15.1,1.73l-3.89,20.76-3.95,22.79c-.04.14,0,.33-.12.41-2.93,1.8-1.62,11.21-3.93,15.8-1.36,2.7-2,0-7,3,0,0,5-5,7-24,.44-4.17,2.31-10.46,3-15,1.36-8.86,4.62-17.35,5.86-25.97.08-.54-.35-1.03-.9-1.03h-1.96c-1,0,3-1,3-4v-1.57c0-.61-.32-1.23-.89-1.44-.69-.26-1.33-1.32-.11-4.98,2-6,1-6,1-6,0,0,2-4,2-5s0-8,1-8c0,0,1,3,1,6,0,0,1,2,1,3s2,2,2,4c0,1.5,1.12,4.69,2.11,6.19,1.11,1.68,1.5,2.89.89,4.81-.02.05.02.95,0,1-1,3,4,3,4,3,0,0-1.73,0-3.44-.44-.63-.16-1.18.43-.95,1.04,3.26,8.54,18.5,48.4,19.39,48.4l4,5c.21.43.77.23.43.57l-.43.43Z"/>
  <path d="M549.5,113.19s0-2-2-1,1-7,1-7c0,0,9-5,18-1,0,0,7,4,3,6,0,0,3,2,3-1l1.26,4.1s-1.26-3.1-3.26-1.1c0,0,0,3,2,3,0,0,1,0,1,2,0,0,2,2,1,3,0,0,0-2-1-1s1.52,2.32,1.52,2.32c0,0-6.52,5.68-9.52,1.68,0,0,1-3-1-5s.02-5.02.02-5.02c0,0-2.02.02-2.02,1.02s-4,0-5-1-1,2,1,3c0,0,1,1,1,2,0,0-1-2-3-2,0,0-1,0-1-2s-4,0-4,0c0,0-1,1-2-1Z"/>
  <path d="M567.5,105.19s-2-7-2-9-2-3-2-3c0,0,0-2,1-2,0,0,0-2-2-3s0-2,0-2c0,0,0-3-1-5s0-2,0-2c0,0,0-1-1-2s0-3,0-3c0,0,1-1-1-3s0,0,0,0c0,0-1-2-2,1,0,0-1,1,0,3s-1,2-1,2c0,0-1,1-1,2,0,0,1,1,0,2s-1,4,0,5-1,2-1,2c0,0-2,1-2,3,0,0,2-2,2,2,0,0-2,1-2,2s-.2,8.22-3.1,9.61c0,0,13.1-3.61,18.1.39Z"/>
  <path d="M601.5,60.19s1,0,0-2,0-3,0-3c1-3,2-1,2-1,0,0-2-2,0,0s1,3,1,3c0,0-1,2,0,3s1,2,1,2c0,0,0,1,1,3,.57,1.14,1.17,2.23,1,3-.21.94,0,2-.6,2.89-.24.36.34.81.6,1.11.28.33,1.6.6,2,1,.48.48.73.96.86,1.32.12.33-.08.65-.42.74-1.23.35-.44,1.93-.44,1.93,0,0,2,1,2,3s3,9,3,9c-5-4-18,2-18,2,2.9-1.39,2.55-11.11,3-12,.74-1.48-.16-2.41-.68-2.8-.2-.15-.32-.38-.31-.63.21-3.5,2.99-2.57,2.99-2.57,0,0,0-1-1-2s0-6,0-6c0,0,.86-1.72.18-2.77-.1-.16-.18-.33-.18-.52,0,0,0-1.71,1-1.71Z"/>
  <path d="M594.5,92.19s12-9,22-2c0,0,2,2,1,4s1,1,1,1h3s1,1,0-2l1.79,3.6s-5.63-.78-6.21.81c0,0-.58,4.59-2.58,4.59s-2-2-2-3-1,1-2,2-2,2-4,0v-3c0-1-1,0-1,1s-1,3-2,3-3,0-4-2-4-3-4-3l-1.28-.76s-1.72-2.24.28-4.24Z"/>
  <path d="M648.5,79.19s-.23-2.76,1.96-5.09c2.38-2.52,7.6-4.51,19.04-1.91,0,0,5,2,4,5,0,0-2,2,0,2s1.63-.94,1.63-.94l1.44,2.61s-3.67-1.97-3.87.18c0,0,.8,3.15-2.2,3.15,0,0-3-3-3-1s-3,2-5,1c0,0-1-4-2-1,0,0-1,3-3,1s-2,0-2,0c0,0-3-1-3-4,0,0-1-1-2,0s-2-1-2-1Z"/>
  <path d="M651.5,73.19s0,2,1-3,1-6,1-6l-1.95.47s-.05-.47-.05-1.47c0-.59,1.87-.62,3-1,0,0,0-2-1-3s-.06-2.99-.06-2.99c0,0,1.06-1.01,2.06-1.01s1-1,0-2,0-5,0-5c0,0,1-3,1-4s-1-1,0-2,1-3,1-3l-1-1.62s0-3.38,1-3.38l1-1s2,1,2,2,1,2,0,3,0,3,0,3c0,0,2,1,1,2,0,0,0,3,1,4s1,6,0,6c0,0,0,1,1,1s4,2,3,3-2,1-1,3,1,2,1,3,2,9,3,9c0,0-16,3-18,1Z"/>
  <path d="M413,174.69s-2-4,0-5,0-4,0-4c0,0-2-4,1-3h3s2,0,1,2,2,4,2,4c0,0,2,1,1,2s.54,2.06.54,2.06l-8.54,1.94Z"/>
  <path d="M342,194.69s-2-3-2-5c0,0,2,0,0-3s0-4,0-4h4.83c.07,0,.11.07.07.12-.23.3-.68,1.09.1,1.88,1,1,1,4,2,3s1,0,1,0c0,0-1,2,0,3s3.34,2.1,3.34,2.1l-9.34,1.9Z"/>
  <path d="M285,211.69s-3-3-6-4-3-3-3-3v-1s-2,0-3-1,0-1,0-1c0,0,3-1,4-1,0,0,1,0,0-2s1-3,1-3c0,0,1,0,1-1s0-2,2-2,2,1,2,1c0,0,1,2,2,2s2,1,2,1c0,0,0,1,1,0s5,1,5,1c0,0,3,1,6,0l3-1s0,1-3,2-1,2-1,2c0,0,.83-.83,3.24,1.29.41.36.96.51,1.49.37.61-.15,1.65-.2,3.27.34,0,0,2,1,1,2v1l-22,6Z"/>
  <path d="M487,153.69s2,0,0-2,0-4,0-4c0,0-1-2-2-3s-1-3,0-3,3,1,3,0,0-1,0-1c0,0,2,1,3,1s2,0,1,1,0,3,0,3l2,2s3,2,2,2,4,1,4,1c0,0-11,4-12,4s-1-1-1-1Z"/>
  <path d="M742,73.69s-3-4-1-7c0,0,1-1-2-4,0,0-2-6,2-4,0,0,1-1,3,0,0,0,2,1,1,2s0,1,0,1l2,3s1,1,2,0c0,0,1-1,1,1s-1,4,1,4,1,1,1,1l-10,3Z"/>
  <path d="M890.86,83.71s3.14,1.98,3.14.98,1-2,1-2c0,0-2-3-1-3s0,1,3,1,3,2,3,2c0,0,1,0,1-1,0,0,3,0,2,1s0,3-3,4,0,0,0,0c0,0-5,0-4,2h-2l-3.14-4.98Z"/>
  <path d="M929.86,127.63s3.14.06,3.14-1.94,0-1,0-1l3,1s2,2,3,2,0,1,0,1c0,0-1,1-1,2s-3,1-3,1l-1.66.5-3.48-4.56Z"/>
  <path d="M953.02,154.87s1.98-3.18,4.98-1.18,3,5,4,4c0,0-4,3.04-2.5,4.02s1.5,2.98,4.5,2.98,1,2,1,2c0,0-1.44,2.2-.22,2.1s-1.78,2.9-3.78.9-3.96-12.64-7.98-14.82Z"/>
  <path d="M302,249.69s2,1,1,3c0,0-1.8-.9-1.13,2.42.08.38-.06.77-.37,1.01-.36.28-.91.68-1.65,1.11-.96.55-1.17,1.89-.36,2.64.33.3.81.59,1.51.82,0,0,6,2,7,1,0,0,3-1,1-3s-1-3-1-3c0,0,1-1,0-2-.36-.36-.46-.59-.44-.73.03-.25-.04-.51-.27-.62l-5.28-2.64Z"/>
  <path d="M348.5,278.19s2,0,1,2c0,0-2-1-.63,1.92.16.35-.06.77-.37,1.01-.36.28-.26.64-1,1.07-.96.55-1.82,1.93-1.01,2.68.33.3,1.31,1.09,2.01,1.32,0,0,5,1,6.5.5,0,0,3.5-1.5,1.5-3.5s-1.5-2.5-1.5-2.5c0,0,1-1,0-2-.36-.36-.46-.59-.44-.73.03-.25-.04-.51-.27-.62l-5.78-1.14Z"/>
  <path d="M303.52,261.45s-.52,1.24-.52,2.24,0,1,0,1c0,0,1,3,0,4s-2,5-2,5c0,0-1,4,2,0l3.42-3.42c.43-.43.72-.98.8-1.59.12-.97.04-2.37-1.21-3l-1.32-.66c-.42-.21-.68-.64-.68-1.11v-.96c0-.18-.03-.37-.1-.54l-.38-.98Z"/>
  <path d="M350.45,288.54l.05,2.65s0,2,1,0c0,0-1-1,0-2,0,0-.09-1.31-1.05-.65Z"/>
  <path d="M368.5,289.2c-.54.54-.58,1.39-.12,2,.38.5.62,1,.12,1-.44,0-.49.38-.42.81.16.91-.24,1.84-.98,2.4-.56.42-1.17.79-1.6.79-1,0,1,3,3,3,0,0,5,1,6,0,0,0,2,0,1-2s0-2,0-2l-7-6h0Z"/>
  <path d="M370.5,299.19v4s1,1,1,0-1-4-1-4Z"/>
  <path d="M930.5,203.19s1,2-3,1c0,0,1,2-1,4,0,0-1,1,0,2s-1,3-1,3c0,0-3,2,0,3,0,0,7,3,10-1,0,0,1-2-1-3-1.18-.59-1.32-1.53-1.23-2.2s-.07-1.41-.52-1.96c-.36-.44-.81-.84-1.25-.84-1,0-1-4-1-4Z"/>
  <path d="M929.5,217.19v6s1,1,1-1-1-5-1-5Z"/>
  <path d="M896.5,213.19v6s0,2-1,2-4,2-2,3,0,3,0,3c0,0-3,3,0,4s8,0,8,0c0,0,3-1,2-3s-3-1-2-4-2-3-2-3c0,0-2,0-2-1s-1-7-1-7Z"/>
  <path d="M898.5,232.19l1,4s-4,3-5,4,1,4,1,4c0,0,4,3,4,4s3-2,3-2c0,0,3-5,1-7,0,0-3-2-3-3s-2-4-2-4Z"/>
  <path d="M838.5,232.19s2,1-1,4-1,2-1,2c0,0,2-1,4,0s3-1,3-1c0,0-1-2-2-2s0-2,0-2v-2c0-1-3,1-3,1Z"/>
  <path d="M551,300.69l2-1v2c0,1,0,3,1,3s1,3,1,4,0,2,2,2,2,3-3,4c-1.19.24-2.27.25-3.22.13-3.04-.39-4.78-2.13-4.78-2.13,0,0-1-1,1-2s1-4,1-4c0,0,0-2,1-2s2-3,2-4Z"/>
  <path d="M550,318.69l.78-3.87,1.22-.13s-2,3-1,4-1,0-1,0h0Z"/>
  <path d="M636,281.69l2-1v2c0,1,0,3,1,3s1,3,1,4,0,2,2,2,2,3-3,4c-1.19.24-2.27.25-3.22.13-3.04-.39-4.78-2.13-4.78-2.13,0,0-1-1,1-2s1-4,1-4c0,0,0-2,1-2s2-3,2-4Z"/>
  <path d="M635,299.69l.78-3.87,1.22-.13s-2,3-1,4-1,0-1,0h0Z"/>
  <path d="M829,41.69s1-7,6-10,5-12,5-12c0,0,2,1,4-1s3.88-14.08,5.94-14.54-.94,8.54-.94,8.54c0,0-9,26-20,29Z"/>
  <path d="M257.29,197.92s.21-6.73,1.21-8.73c0,0,1-2,2-2,.5,0,.5.25.38.5-.28.57-.34,1.22-.27,1.86.33,2.99,1.66,10.45,7,17.52"/>
  <path d="M968,173.69s5-1,5-3,7,1,8-1c0,0-4,7-11,5l-2-1Z"/>
  <g>
    <path d="M490,600.69l5-144c0-2-6-6-6-6l1-3s1-23,1-25,1-4,2-4,7-5,6-6c-.63-.63-.47-1.64-.26-2.32.22-.71.34-1.45.41-2.19.23-2.65.6-8.01-.15-9.49-1-2-3-3-3-3-6-2-4-8-4-8l.88-9.73c.07-.73.59-1.34,1.3-1.52,3.6-.91,5.52-2.92,6.33-4.01.31-.42.49-.91.53-1.43.2-2.82.95-13.45.95-14.32,0-.66-.43-2.18-.73-3.15-.19-.63.03-1.3.58-1.67,2.11-1.43,7.31-3.06,9.79-3.79.79-.23,1.58-.51,2.33-.85,2.22-.98,4.04-1.33,5.08-1.47.61-.08,1.14-.46,1.41-1.01l1.25-2.5c.17-.33.2-.72.07-1.07-.29-.8-.26-1.4-.14-1.82s.47-.7.89-.78c4.78-.92,7.54-3.08,8.27-3.72.13-.11.24-.24.34-.38,1.72-2.4,1.18-3.68.53-4.3-.35-.34-.87-.37-1.32-.19-1.08.43-2.35-.31-2.35-.31l-39-31s-7-4-8-8-3-1-3-1c-2,2-4.74,2.92-4.74,2.92l-78.26,18.08s-3,1-5,0c-.75-.38-1.36-.33-1.83-.12-.74.32-1.17,1.11-1.17,1.92v3.94c0,.71.63,1.26,1.34,1.16.53-.08,1.09-.21,1.41-.45.25-.19.57-.25.83-.09l6.69,4.18c.29.18.24.62-.09.73l-1.36.45c-.56.19-.96.69-.98,1.28-.04,1.05.25,2.73,2.16,4,2.65,1.77,14.67,9,17.43,10.66.33.2.46.6.31.96l-.46,1.1c-.18.18-.29.43-.31.68l-.92,15.61c-.04.63.22,1.24.69,1.65l6.5,5.68c.48.42.75,1.02.75,1.66v12.77c0,.72-.47,1.35-1.16,1.56-2.04.61-6.25,2.03-8.22,3.95-.41.4-.63.97-.67,1.54l-.9,13.43c-.03.53.04,1.05.23,1.54.69,1.79,2.74,6.13,6.99,7.93.44.19.7.66.67,1.14l-1.88,27.29c-.03.51-.37.94-.85,1.1-1.74.6-5.89,2.28-7.78,5.02-.28.41-.44.89-.48,1.39l-8.96,135.34-2,33,75,3,19-15Z"/>
    <path d="M830,237.69l-24-26-1.57-3.94c-.22-.56-.89-.78-1.41-.47l-4.02,2.41-45,11-56.93,14.72c-.71.18-1.45.2-2.16.06l-2.52-.5c-.67-.13-1.27.45-1.16,1.12l.77,4.6c1.66,7.47,7.45,8.74,9.38,8.96.36.04.63.33.64.68.05,1.17.23,3.61.98,4.36.82.82,9.77,7.06,12.92,9.25.7.48,1.55.66,2.38.5l3.36-.65c.25-.05.47.14.47.39,0,1.28.06,4.71.87,5.52,1,1,2,1.34,2,1.34h0c-.62.41-1,1.11-1,1.86v13.8c0,2,1,2,1,2v1c0,2,4,6,4,6l1,18-2,1c-2,1-3,4-3,4v16c0,1,7,8,7,8l1,36c-3,2-5,5-5,5l8,184h76l19-14-9-160-6-7-2-37,5-4-1-16-6-6-1-20,4-4-1-20c0-2,5-2,5-2,0,0,10-1,12-3s3,0,3,0c0,0,3,2,3-1s-1-6-1-6c0,0-2-1,1-2s5-3,5-3c0,0,1-1,2,0s2,0,2,0c0,0,1-1,0-3s-1-3-1-3v-1s-2-1,0-3c0,0,0-2-1-2s2-2,2-2c0,0,2-2,0-3s-4,1-4,1c0,0-1,2-2,2s-1-1-1-2-9-9-9-9l-24-26"/>
    <path d="M971,172.69c7-6,2.81-16.54,2.81-16.54.09-.26.37-.42.64-.35,8.51,2.2,7.54,10.89,7.54,10.89,0,5.84-6.27,8.2-8.34,8.82-.57.17-1.18.17-1.73-.04-2.8-1.08-5.93-5.78-5.93-5.78l-38-44-50-57c-2-1-1-3-1-3-11-11-8-32-8-32,1-6-1-19-1-19-1.43-7.86-6.95-12.15-9.98-13.95-1.83-1.09-4.18-.98-5.84.35l-.03.02c-1.25,1-2.11,2.41-2.39,3.98-7.56,41.74-43.76,47.61-43.76,47.61l-118,40-192,59-215.29,61.15c-.8.23-1.64.26-2.45.08h0c-10.77-2.36-18.62-13.31-18.31-24.32,0-.2-.25-.26-.33-.08-1.52,3.62-6.63,18.34,4.66,30.42.46.5.86,1.06,1.14,1.68l4.57,10.06,99,60,22,15s4,1,4,5l78.26-18.08s2.74-.92,4.74-2.92c0,0,2-3,3,1s8,8,8,8l29,23s10-5,11-11,5-7,5-7l101-22,72-18s0,6,2,7c0,0,1,2,0,3s0,2,0,2c0,0,3,2,5,2,0,0,2-1,2,1l-2,2s-1,1-2,4,2,6,2,6c0,0,6,4,11-2,0,0-1,0-1-2v-13.8c0-.75.38-1.45,1-1.86h0s-1-.34-2-1.34c-.81-.81-.87-4.24-.87-5.52,0-.25-.23-.44-.47-.39l-3.36.65c-.83.16-1.69-.02-2.38-.5-3.14-2.18-12.09-8.42-12.92-9.25-.75-.75-.94-3.2-.98-4.37-.01-.36-.28-.64-.63-.68-1.92-.21-7.72-1.48-9.38-8.96l-.77-4.6c-.11-.68.49-1.26,1.16-1.12l2.52.5c.72.14,1.45.12,2.16-.06l56.93-14.72,45-11,4.04-2.43c.5-.3,1.15-.08,1.37.46l1.59,3.96,24,26,19-12,111.87-30.69c.71-.2,1.3-.72,1.57-1.4l3.37-8.42c.12-.31.31-.59.54-.82,1.1-1.08,4.52-4.62,6.39-8.73"/>
    <path d="M616.5,96.19s.73,1.47.31,2.52c-.08.21.11.42.33.4,1.49-.16,4.94-.3,3.36,2.08,0,0,0,1,1,1s2,0,1,2,2,1,2,1l27-8s-3,0-5-3c0,0-2-3-2-4s0-8,5-6c0,0,2-6,6-3,0,0,2-6,6-1,0,0,5-5,7,0,0,0,4-2,4,0s3,2,3,2c0,0,2-1,2,3,0,0-1,1,0,2s0,2,0,2c0,0,8-1,9-2s5-6,5-8c0,0,2-3,2,0,0,0-2,6,0,9l.32,2.54-179.32,55.46v-1.37c0-.31-.28-.54-.59-.48-.87.18-2.41.28-2.41-1.15v-1s-1.99,1-3.99-8.95c0-.03-.01-.07-.01-.1v-.95s.92.92.92.92c.05.05.09.11.11.18.18.52,1.07,2.9,1.97,2.9,0,0,2,1,2,2s4.8.04,4.99,0h.02s22.99-6,22.99-6c0,0,6.54-1.64,8.53-3.43.26-.24.2-.66-.12-.81-.93-.4-2.69-1.32-3.41-2.77,0,0-5.83-8.74-.26-9.95.15-.03.28-.13.34-.27.27-.63,1.17-2.28,2.7-.97.12.1.29.1.39-.02.79-.89,4.1-4.2,7.49-2.02.2.13.45.16.66.05,1.14-.57,4.94-2.12,7.48.94.11.13.29.17.44.08,1.13-.68,5.75-3.11,5.75,2.15v2c0,.59-.69.48-1.26.3-.45-.15-.83-.48-1.04-.91l-.7-1.39s-.77-1.54-2.31-.57c-.5.32-.73.94-.49,1.48s.73,1.09,1.79,1.09c2,0,2,3,2,3,0,0,0,2.59-2.41,2.96-.12.02-.14.19-.02.22,1.45.38,5.44,1.01,9.43-2.18l22-7s1-1-3-2c0,0-2,0-2-2,0-.78-.3-1.1-.67-1.21-.82-.23-1.29-1.1-1.21-1.94.22-2.24.83-5.48,2.57-5.82.21-.04.38-.21.48-.4.51-1.04,2.16-3.81,4.45-1.97.19.15.47.08.57-.14.59-1.3,2.58-4.63,6.47-1.78.18.13.44.13.59-.04.78-.82,3.29-2.9,6.47.03.15.14.38.16.55.03.61-.5,2.17-1.54,3.73-.76"/>
    <path d="M581.5,119.19c-1-2-4-9-4-9-.9,0-12.4-36.67-14.63-43.81-.14-.45.31-.86.76-.69,1.25.49,1.87.49,1.87.49,0,0-3,0-2-3s0-5,0-5c-1,0-3-5-3-7s-2-3-2-4-1-3-1-3c0-3-1-6-1-6-1,0-1,7-1,8s-2,5-2,5c0,0,1,0-1,6s0,5,0,5c0,0,1,0,1,3s-4,4-3,4,3-1,3-1c-4,32-17,65-17,65,2.47-1.06,2.64-.3,4-3,2.49-4.95,5-14,5-14l7-29,4-16s-1-1,1-4,3,1,3,1l7,24s5,15,6,20c.84,4.18,3.31,7.28,4.1,8.18.1.12.29.08.33-.07.26-.82,1.16-2.71,3.57-1.11"/>
    <path d="M628.5,104.19s-6-7-7-12-8-22-8-22l-9-23s-1-4-3-1-1,4-1,4l-3,23-4,28s-1.08,11.08-5,15c-2,2-3.23,2.03-5.49,2.8-.17.06-.32-.11-.23-.27,1.32-2.27,6.96-12.8,8.72-29.54.44-4.17,1.31-8.46,2-13,1.41-9.22,2.88-19.03,4-28,0,0-3,1-4,1s3-1,3-4v-1.57c0-.61-.32-1.23-.89-1.44-.69-.26-1.33-1.32-.11-4.98,2-6,1-6,1-6,0,0,1-2,1-4,0-.67,1-.71,1-1,0-.82.45-6.27,1-8,0,0,1,0,1,1,0,1.41,1.26,4.94,2,6,.5.72.54.23,1.21.79.42.35.79.78.79,1.21,0,3,1,3,1,5s1,7,2,7c0,0,1,.84,1,4s3,3,3,3c0,0-1,0-3-1-1.79-.89-.28,2.35,0,3,3.79,8.83,18.11,46,19,46,0,0,3,5,4,7l1.24,1.59"/>
    <path d="M686.5,87.19c-3-2-5,1-5,1,0,0-6-7-7-12s-6-17-6-17l-8-25s-1-4-3-1c-1.24,1.85-1.33,2.94-1.21,3.51s.16,1.15.1,1.73l-3.89,20.76-3.95,22.79c-.04.14,0,.33-.12.41-2.93,1.8-1.62,11.21-3.93,15.8-1.36,2.7-2,0-7,3,0,0,5-5,7-24,.44-4.17,2.31-10.46,3-15,1.36-8.86,4.62-17.35,5.86-25.97.08-.54-.35-1.03-.9-1.03h-1.96c-1,0,3-1,3-4v-1.57c0-.61-.32-1.23-.89-1.44-.69-.26-1.33-1.32-.11-4.98,2-6,1-6,1-6,0,0,2-4,2-5s0-8,1-8c0,0,1,3,1,6,0,0,1,2,1,3s2,2,2,4c0,1.5,1.12,4.69,2.11,6.19,1.11,1.68,1.5,2.89.89,4.81-.02.05.02.95,0,1-1,3,4,3,4,3,0,0-1.73,0-3.44-.44-.63-.16-1.18.43-.95,1.04,3.26,8.54,18.5,48.4,19.39,48.4l4,5c.21.43.77.23.43.57l-.43.43Z"/>
    <path d="M549.5,113.19s0-2-2-1,1-7,1-7c0,0,9-5,18-1,0,0,7,4,3,6,0,0,3,2,3-1l1.26,4.1s-1.26-3.1-3.26-1.1c0,0,0,3,2,3,0,0,1,0,1,2,0,0,2,2,1,3,0,0,0-2-1-1s1.52,2.32,1.52,2.32c0,0-6.52,5.68-9.52,1.68,0,0,1-3-1-5s.02-5.02.02-5.02c0,0-2.02.02-2.02,1.02s-4,0-5-1-1,2,1,3c0,0,1,1,1,2,0,0-1-2-3-2,0,0-1,0-1-2s-4,0-4,0c0,0-1,1-2-1Z"/>
    <path d="M567.5,105.19s-2-7-2-9-2-3-2-3c0,0,0-2,1-2,0,0,0-2-2-3s0-2,0-2c0,0,0-3-1-5s0-2,0-2c0,0,0-1-1-2s0-3,0-3c0,0,1-1-1-3s0,0,0,0c0,0-1-2-2,1,0,0-1,1,0,3s-1,2-1,2c0,0-1,1-1,2,0,0,1,1,0,2s-1,4,0,5-1,2-1,2c0,0-2,1-2,3,0,0,2-2,2,2,0,0-2,1-2,2s-.2,8.22-3.1,9.61c0,0,13.1-3.61,18.1.39Z"/>
    <path d="M601.5,60.19s1,0,0-2,0-3,0-3c1-3,2-1,2-1,0,0-2-2,0,0s1,3,1,3c0,0-1,2,0,3s1,2,1,2c0,0,0,1,1,3,.57,1.14,1.17,2.23,1,3-.21.94,0,2-.6,2.89-.24.36.34.81.6,1.11.28.33,1.6.6,2,1,.48.48.73.96.86,1.32.12.33-.08.65-.42.74-1.23.35-.44,1.93-.44,1.93,0,0,2,1,2,3s3,9,3,9c-5-4-18,2-18,2,2.9-1.39,2.55-11.11,3-12,.74-1.48-.16-2.41-.68-2.8-.2-.15-.32-.38-.31-.63.21-3.5,2.99-2.57,2.99-2.57,0,0,0-1-1-2s0-6,0-6c0,0,.86-1.72.18-2.77-.1-.16-.18-.33-.18-.52,0,0,0-1.71,1-1.71Z"/>
    <path d="M594.5,92.19s12-9,22-2c0,0,2,2,1,4s1,1,1,1h3s1,1,0-2l1.79,3.6s-5.63-.78-6.21.81c0,0-.58,4.59-2.58,4.59s-2-2-2-3-1,1-2,2-2,2-4,0v-3c0-1-1,0-1,1s-1,3-2,3-3,0-4-2-4-3-4-3l-1.28-.76s-1.72-2.24.28-4.24Z"/>
    <path d="M648.5,79.19s-.23-2.76,1.96-5.09c2.38-2.52,7.6-4.51,19.04-1.91,0,0,5,2,4,5,0,0-2,2,0,2s1.63-.94,1.63-.94l1.44,2.61s-3.67-1.97-3.87.18c0,0,.8,3.15-2.2,3.15,0,0-3-3-3-1s-3,2-5,1c0,0-1-4-2-1,0,0-1,3-3,1s-2,0-2,0c0,0-3-1-3-4,0,0-1-1-2,0s-2-1-2-1Z"/>
    <path d="M651.5,73.19s0,2,1-3,1-6,1-6l-1.95.47s-.05-.47-.05-1.47c0-.59,1.87-.62,3-1,0,0,0-2-1-3s-.06-2.99-.06-2.99c0,0,1.06-1.01,2.06-1.01s1-1,0-2,0-5,0-5c0,0,1-3,1-4s-1-1,0-2,1-3,1-3l-1-1.62s0-3.38,1-3.38l1-1s2,1,2,2,1,2,0,3,0,3,0,3c0,0,2,1,1,2,0,0,0,3,1,4s1,6,0,6c0,0,0,1,1,1s4,2,3,3-2,1-1,3,1,2,1,3,2,9,3,9c0,0-16,3-18,1Z"/>
    <path d="M413,174.69s-2-4,0-5,0-4,0-4c0,0-2-4,1-3h3s2,0,1,2,2,4,2,4c0,0,2,1,1,2s.54,2.06.54,2.06l-8.54,1.94Z"/>
    <path d="M342,194.69s-2-3-2-5c0,0,2,0,0-3s0-4,0-4h4.83c.07,0,.11.07.07.12-.23.3-.68,1.09.1,1.88,1,1,1,4,2,3s1,0,1,0c0,0-1,2,0,3s3.34,2.1,3.34,2.1l-9.34,1.9Z"/>
    <path d="M285,211.69s-3-3-6-4-3-3-3-3v-1s-2,0-3-1,0-1,0-1c0,0,3-1,4-1,0,0,1,0,0-2s1-3,1-3c0,0,1,0,1-1s0-2,2-2,2,1,2,1c0,0,1,2,2,2s2,1,2,1c0,0,0,1,1,0s5,1,5,1c0,0,3,1,6,0l3-1s0,1-3,2-1,2-1,2c0,0,.83-.83,3.24,1.29.41.36.96.51,1.49.37.61-.15,1.65-.2,3.27.34,0,0,2,1,1,2v1l-22,6Z"/>
    <path d="M487,153.69s2,0,0-2,0-4,0-4c0,0-1-2-2-3s-1-3,0-3,3,1,3,0,0-1,0-1c0,0,2,1,3,1s2,0,1,1,0,3,0,3l2,2s3,2,2,2,4,1,4,1c0,0-11,4-12,4s-1-1-1-1Z"/>
    <path d="M742,73.69s-3-4-1-7c0,0,1-1-2-4,0,0-2-6,2-4,0,0,1-1,3,0,0,0,2,1,1,2s0,1,0,1l2,3s1,1,2,0c0,0,1-1,1,1s-1,4,1,4,1,1,1,1l-10,3Z"/>
    <path d="M890.86,83.71s3.14,1.98,3.14.98,1-2,1-2c0,0-2-3-1-3s0,1,3,1,3,2,3,2c0,0,1,0,1-1,0,0,3,0,2,1s0,3-3,4,0,0,0,0c0,0-5,0-4,2h-2l-3.14-4.98Z"/>
    <path d="M929.86,127.63s3.14.06,3.14-1.94,0-1,0-1l3,1s2,2,3,2,0,1,0,1c0,0-1,1-1,2s-3,1-3,1l-1.66.5-3.48-4.56Z"/>
    <path d="M953.02,154.87s1.98-3.18,4.98-1.18,3,5,4,4c0,0-4,3.04-2.5,4.02s1.5,2.98,4.5,2.98,1,2,1,2c0,0-1.44,2.2-.22,2.1s-1.78,2.9-3.78.9-3.96-12.64-7.98-14.82Z"/>
    <path d="M302,249.69s2,1,1,3c0,0-1.8-.9-1.13,2.42.08.38-.06.77-.37,1.01-.36.28-.91.68-1.65,1.11-.96.55-1.17,1.89-.36,2.64.33.3.81.59,1.51.82,0,0,6,2,7,1,0,0,3-1,1-3s-1-3-1-3c0,0,1-1,0-2-.36-.36-.46-.59-.44-.73.03-.25-.04-.51-.27-.62l-5.28-2.64Z"/>
    <path d="M348.5,278.19s2,0,1,2c0,0-2-1-.63,1.92.16.35-.06.77-.37,1.01-.36.28-.26.64-1,1.07-.96.55-1.82,1.93-1.01,2.68.33.3,1.31,1.09,2.01,1.32,0,0,5,1,6.5.5,0,0,3.5-1.5,1.5-3.5s-1.5-2.5-1.5-2.5c0,0,1-1,0-2-.36-.36-.46-.59-.44-.73.03-.25-.04-.51-.27-.62l-5.78-1.14Z"/>
    <path d="M303.52,261.45s-.52,1.24-.52,2.24,0,1,0,1c0,0,1,3,0,4s-2,5-2,5c0,0-1,4,2,0l3.42-3.42c.43-.43.72-.98.8-1.59.12-.97.04-2.37-1.21-3l-1.32-.66c-.42-.21-.68-.64-.68-1.11v-.96c0-.18-.03-.37-.1-.54l-.38-.98Z"/>
    <path d="M350.45,288.54l.05,2.66s0,2,1,0c0,0-1-1,0-2,0,0-.09-1.31-1.05-.66Z"/>
    <path d="M368.5,289.2c-.54.54-.58,1.39-.12,2,.38.5.62,1,.12,1-.44,0-.49.38-.42.81.16.91-.24,1.84-.98,2.4-.56.42-1.17.79-1.6.79-1,0,1,3,3,3,0,0,5,1,6,0,0,0,2,0,1-2s0-2,0-2l-7-6h0Z"/>
    <path d="M370.5,299.19v4s1,1,1,0-1-4-1-4Z"/>
    <path d="M930.5,203.19s1,2-3,1c0,0,1,2-1,4,0,0-1,1,0,2s-1,3-1,3c0,0-3,2,0,3,0,0,7,3,10-1,0,0,1-2-1-3-1.18-.59-1.32-1.53-1.23-2.2s-.07-1.41-.52-1.96c-.36-.44-.81-.84-1.25-.84-1,0-1-4-1-4Z"/>
    <path d="M929.5,217.19v6s1,1,1-1-1-5-1-5Z"/>
    <path d="M896.5,213.19v6s0,2-1,2-4,2-2,3,0,3,0,3c0,0-3,3,0,4s8,0,8,0c0,0,3-1,2-3s-3-1-2-4-2-3-2-3c0,0-2,0-2-1s-1-7-1-7Z"/>
    <path d="M898.5,232.19l1,4s-4,3-5,4,1,4,1,4c0,0,4,3,4,4s3-2,3-2c0,0,3-5,1-7,0,0-3-2-3-3s-2-4-2-4Z"/>
    <path d="M838.5,232.19s2,1-1,4-1,2-1,2c0,0,2-1,4,0s3-1,3-1c0,0-1-2-2-2s0-2,0-2v-2c0-1-3,1-3,1Z"/>
    <path d="M829,41.69s1-7,6-10,5-12,5-12c0,0,2,1,4-1s3.88-14.08,5.94-14.54-.94,8.54-.94,8.54c0,0-9,26-20,29Z"/>
    <path d="M257.29,197.92s.21-6.73,1.21-8.73c0,0,1-2,2-2,.5,0,.5.25.38.5-.28.57-.34,1.22-.27,1.86.33,2.99,1.66,10.45,7,17.52"/>
    <path d="M968,173.69s5-1,5-3,7,1,8-1c0,0-4,7-11,5l-2-1Z"/>
  </g>
  <path d="M579,391.69c1.3-.43-2.87-1-3.9-3.72-.06-.15-.17-.27-.32-.31-.29-.07-.77-.28-.77-.97,0-.97-.94-3.82.82-5.81.1-.12.15-.27.11-.42-.18-.69-.55-2.72.83-3.63.14-.09.24-.23.24-.4.04-1.36.42-7.67,3.85-8.7.1-.03.18-.09.24-.17.47-.67,2.36-3.65-2.09-1.87,0,0-3,1-5,0,0,0-1-1-3,1s-5-1-5-1c0,0-1,0-2-2,0,0,0-1-1-2s-2-5,1-7c0,0,3-3,4-3s2-2,3-2,1-2,4-1,3-3,3-3c0,0-1-7,3-13,2.03-3.04,3.29-4.54,4.03-5.28.48-.48,1.24-.51,1.78-.11l2.82,2.12c.21.16.51.12.68-.09.29-.38.69-1.01.69-1.64,0,0,1-4,5-5,0,0,1.98-.99,2.99-1.99.01-.01.02-.02.03-.03.11-.12.93-1.11-.01-2.99,0,0-.77-1.54-.28-2.6.11-.23.04-.51-.18-.64-.24-.14-.2-.49-.54-.77-.08-.07-.19-.03-.32.04-.74.4-1.65-.11-1.63-.96.01-.45,0-.95-.1-1.19-.49-1.2-.65-2.81.05-4.9l1.99-5.98s0-.02,0-.03c.05-.2.77-3.21.26-4.56-.1-.27,0-.59.28-.67.86-.25,2.44-.13,2.45,4.2,0,.02,0,.05,0,.07-.08.49-.95,6.01,0,6.97,0,0,2,4,2-1s-.97-8.89-.04-10.92c.03-.06.04-.11.04-.17,0-.5.05-3.08.47-4.29.13-.38.66-.42.87-.08.56.94,1.63,2.92,1.66,4.39,0,.04,0,.07.02.11.21.53,1.98,3.95.98,6.95,0,0,.08.11.2.27.5.63,1.8,1.96,1.8-1.27,0,0,0-2.95-.98-4.95-.02-.03-.02-.06-.03-.09-.08-.52-.72-5.15,1.41-5.86.29-.1.6.13.61.44.05.91.24,2.73.98,3.47,1,1,5,8,3,12,0,0-1,1-1,3s-2,1-2,1c0,0-1-1-2,1,0,0-1,2,2,3,0,0,5,2,2,4s1,4,1,4c0,0,3,2,2,3s0,2,0,2c0,0,.75.75.3,1.6-.12.23-.07.52.15.66.59.36,1.55,1.05,1.55,1.74,0,.94-.89,7.2-2.66,7.93-.21.09-.33.31-.28.54.13.65.55,1.84,1.94,2.53,1.88.94,7.32.11,7.94,0,.04,0,.07-.02.11-.04.32-.17,1.95-1.07,1.95-1.97,0-1,2-2,3-1s0-3,1-4,4-1,4,1c0,1.78,1.58,3.55,1.93,3.93.05.05.08.1.1.17.16.52.86,3.01-.03,3.9-.8.8.96.96,1.7.99.18,0,.35-.09.44-.25.9-1.67,5.95-11.02,6.86-13.74.96-2.88,4.7-11.31,5.87-11.96.1-.05.15-.15.18-.26.21-.95,1.15-4.68,2.8-5.7.1-.06.17-.14.2-.25.31-1.04,2.08-6.85,3.87-8.76.05-.06.09-.12.1-.19.24-1.02,2.13-8.85,4.89-10.83.06-.04.1-.09.13-.16.6-1.36,7.39-16.71,7.92-19.61.03-.19.17-.33.35-.38l13.7-3.65c.4-.11.75.3.57.68-.74,1.55-2.39,4.6-4.58,6.06-2.85,1.9-3.9,6.51-3.99,6.96,0,.03-.01.05-.02.07-.33.83-5.98,14.99-5.98,15.96s-2,7-3,8-2.89,7.62-4.84,8.9c-.1.07-.18.16-.2.27-.2.88-1.13,4.72-2.82,5.74-.09.06-.16.13-.19.23-.47,1.4-4.02,11.91-4.95,12.85-.99.99-5.89,13.7-7.93,14.96-.05.03-.09.06-.12.11l-2.89,3.85c-.04.05-.09.1-.15.13-1.44.78-1.2,2.1-1.02,2.67.05.15.16.27.31.31.53.15,1.99.92,2.8,4.96,1,5-2,4-3,4s-2,0-3,4c-.81,3.24-3.59,2.54-4.61,2.16-.23-.09-.49.01-.6.24-.63,1.24-2.28,5.11.22,7.6,2.73,2.73.49,6.3.06,6.91-.04.06-.1.11-.16.14-.6.32-3.71,2.04-1.9,2.95s5.22.99,5.89,1c.08,0,.15.02.22.06,1.89,1.02,1.89,2.94,1.89,2.94,0,0-.16,6.24-3.58,7.12,0,0-17.46-11-59.94-3.06,0,0-1.48-5.06,1.52-6.06Z"/>
  <path d="M578.2,397.78s32.44-8.12,60.12,3.4l.68.52,10.98,5.99s.03.01.04.02c10.23,6.53,10.06,18.25,9.99,19.81,0,.12.04.23.11.32,11.71,13.65.17,20.64-1.84,21.71-.17.09-.27.28-.25.47.19,1.53.96,8.03.96,10.67,0,2.89,2.79,10.42,2.99,10.97,0,.02.01.04.02.06.16.74,3.16,14.11,8.99,18.97,5.1,4.25,5.86,7.78,5.98,8.74.02.16.12.31.26.38l3.74,1.87h.03c31.98,13.01,24.48,32.51,24.48,32.51-6,29-61.5,32.5-61.5,32.5-137,13-143-35-143-35,0,0-5-23.99,22.99-32,0,0,0,0,.01,0,.15-.03,5.01-1.06,6-5s3.66-5.76,3.97-5.98c.02-.02.04-.03.06-.05l5.94-5.94s.03-.03.05-.05c.26-.35,2.98-4.02,2.98-4.97,0-1,5.99-15.97,7-26.97,0-.03,0-.05,0-.08-.03-.32-.34-2.29-3.96-5.92-.02-.02-.04-.05-.06-.08-.45-.74-6.64-11.19,2-17.94.02-.01.03-.03.05-.05.16-.18.97-1.17.97-2.97,0,0,0-12,8-17,0,0,10.47-7.62,21.2-8.92.34-.04.53-.4.37-.7"/>
  <path d="M543,477.69s64.72-30,122.86,5.5"/>
  <path d="M549.46,448.87s.54-4.18-.46-7.18,4-11,12-13c0,0,14-6,37-6s39,3,52,10,10,12,10,12c0,0,.08,2.66-1.96,5.33"/>
  <path d="M527.14,498.79s25.83-16.85,84.83-12.85,65.27,13.87,65.27,13.87"/>
  <path d="M596,303.69s-3,7,2,7c0,0,2.94-.34,2.97-2.67"/>
  <path d="M612.31,297.67c1.44,3.94-1.31,9.02-3.31,8.02s-3,0-3,0c-3,2-3-3-3-3,0,0-1-5,0-6,.82-.82.26-4.81.03-6.2-.01-.09.1-.13.14-.05.9,1.75,4.14,8.44,2.84,11.37,0,0,3.49,3.38,2.49-2.62s-2.91-6-.21-8.79c.07-.08.21-.03.22.07.06.77.36,2.9,1.99,3.72,0,0,1.62,2.96,1.81,3.48Z"/>
  <path d="M712,286.69s-3,2-3,7c0,0-2-1-2,5,0,0-2-1-2,8,0,0-3,0-2,5,0,0-3,0-3,4,0,0-2,1-2,5,0,0-1-1-2,2,0,0-3-1-2,2,0,0-3,0-2,3,0,0-4-2-3,7,0,0-3,0-2,2,0,0-3-1-2,4,0,0-3,0-2,2,0,0-3,0-3,3,0,0-2,0-2,2,0,0-2,0-2,2h0s-3-1-2,4c0,0-7-2-5,5,0,0-3-1-2,2,0,0-3-1-2,2,0,0-6,0-5,3,0,0-3-1-2,2,0,0-4-1-5,2,0,0-3,0-4,2,0,0-4,0-4,2,0,0-6,0-5,3,0,0-5.56-.96-5.28,2.52,0,0,3.28,4.48.28,8.48,0,0,4,3,9-2,0,0,5,2,7-2s0,0,0,0c0,0,5,0,5-3,0,0,2,1,2-2,0,0,2,1,2-2,0,0,4,0,2-3,0,0,2,2,3-1,0,0,3,0,2-3,0,0,2.8.93,2.09-1.7-.03-.09-.06-.19-.09-.3,0,0,3,1,2-2,0,0,7,2,7-2,0,0,4-1,2-5,0,0,3,0,3-2,0,0,3,1,2-5,0,0,3,2,2-4,0,0,3,0,2-2,0,0,4,1,3-3,0,0,2,1,2-2,0,0,2,1,2-2,0,0,3,0,2-2,0,0,3,1,3-2,0,0,4-1,2-7,0,0,4,1,2-5,0,0,3,2,2-4,0,0,4,2,3-5,0,0,2,2,2-4,0,0,8,0,6-9,0,0,5-1,5-10,0,0-8,5-11-4"/>
  <path d="M507.77,349.59s1.23,2.1.23,2.1c0,0,3,0,2,3,0,0,4-2,2,2,0,0,3-1,3,2,0,0,2,0,2,2,0,0,6-2,4,7,0,0,3-1,3,2,0,0,5-1,4,2,0,0,4-1,3,3,0,0,2-1,2,2,0,0,2,0,2,2,0,0,8-2,7,2,0,0,3-1,2,5,0,0,2-1,2,2,0,0,6-1,5,3,0,0,10-3,9,6,0,0,10,0,12,2l-9.19,4.48s-3.81-3.48-11.81.52c0,0-2,0-1-3,0,0-3,1-2-2,0,0-3,0-3-3,0,0-4,0-4-3,0,0-9,2-9-2,0,0-3-1-2-7,0,0-2,0-3-2,0,0-2,0-2-2,0,0-2,0-2-2,0,0-4,1-5-2,0,0-4,0-4-3,0,0-2,0-2-2,0,0-3,0-2-4,0,0-3-1-3-3,0,0-2,0-2-2,0,0-3-1-2-3,0,0-1.48-.43-1.24-3.22l-.76-2.78s-.46-1.21,6.77-3.1Z"/>
  <path d="M537.06,303.12s.94,2.57-.06,3.57c0,0,3,0,2,7,0,0,4-1,3,7,0,0,3,0,2,4,0,0,3,0,2,5,0,0,3-1,2,5,0,0,4-1,2,7,0,0,4-1,3,5,0,0,3-2,2,5,0,0,2,0,2,5,0,0,3-1,2,6,0,0,3,0,3,7,0,0,3-1,2,7,0,0,6,1,7,0,0,0,0-3,2-2s3.32-.64,3.32-.64c0,0-2.04,7.4-1.68,7.02s-5.64-1.38-8.64.62-8,7-17,4c0,0-4-4,2-5,0,0-2-5,4-4,0,0-1-3,0-6,0,0-2,1-3-3,0,0-3-1-2-6,0,0-3,0-2-7,0,0-3,0-2-5,0,0-2,1-2-6,0,0-3,1-3-5,0,0-2,0-2-4,0,0-2,0-2-4,0,0-3-1-2-7,0,0-4-1-2-8,0,0-3,0-3-3,0,0-1.16-2.59-.58-3.79s2.7-6.35,7.64-5.78Z"/>
  <path d="M631.5,282.19s0,3-5,3,0,0,0,0c0,0-1,5,2,7,0,0-1,2,0,2s11,1,13,2,3,0,3,0c0,0,0-4,3-2s3,3,3,2,3,6,3,6c0,0-1,6-2,4s-3-1-3,0,0,1-1,1-3-1-3-3,1-4,0-4-5-1-7,0-2,1-2,3c0,1.15.66,1.64,1.22,1.85.51.19.88.62.92,1.16.08,1.25-.11,3.31-2.14,3.99,0,0,1.5-2.5-.5-3.5,0,0-2,2-3,0s1-5,1-5c0,0,1-2,0-3,0,0-4,0-6,3s-3,5-2,7c.88,1.75,3.28,4.27,3.87,6.88.19.82.34,1.65.59,2.45,1.07,3.43,3.3,12.84-1.49,20.33,0,0-1.27-.65-3.12,2.84,0,0-8.85,3.49-10.85-1.51,0,0,.73-1.12,1.36-2.06s1.76-5.55,1.7-6.74,2.94-2.2-.06-17.2c0,0-1-5-4-5,0,0-1-1,0-3s2-1,2-1c0,0,2-8,1-10s0-2,0-2c0,0,2,1,2,0,0-.79-1.24-3.43-1.28-5.01-.01-.43.07-.78.28-.99,0,0-4,1-5,0l19.5-4.5Z"/>
  <path d="M599.94,289.38s-3.94,2.31-6.94,10.31c0,0,1,13-2,17s-7.82,7.42-7.41,11.21c0,0-6.59,5.79-7.43,20.35,0,0-5.16-.56-8.16,3.44,0,0,1-3,0-6s-3,2-3,2c0,0,1-4,2-6s1-1,2,2,3-3,2-5-3,1-3,0,0-5,3-5c0,0-1-6,2-6,0,0-1-7,2-7,0,0-1-8,2-9,0,0,1-2,0-4-.7-1.41-1.9-.34-2.2,1.47-.27,1.63-1.65,2.84-3.3,2.93-1.83.1-4.16.07-6.49-.4,0,0-1,0-1,1s0,8-7,7c0,0-2-1-2-4s4-4,4-4c0,0,0-2,2-2,0,0,1-3,10-2,0,0-1-2,2-3,0,0,1-4-2-3,0,0,0-1-2-1l-.02-4.58,8.3-1.7s-.28,5.28-.28,8.28c0,0,2,2,3-1s2-1,2-1c0,0,.29-6.77-.36-7.39s18.29-3.93,18.29-3.93Z"/>
  <polygon points="0 675.69 398 611.69 965 528.69 1022 589.69 1062 629.69 1110.5 678.19 0 675.69"/>
</svg>