<svg width="400" height="400" viewBox="0 0 400 400" xmlns="http://www.w3.org/2000/svg">
  <!-- Multiple interconnected spirals -->
  <path id="spiral-1" d="M100,100 
      C100,100 300,100 300,100 
      C300,100 300,300 300,300 
      C300,300 100,300 100,300 
      C100,300 100,100 100,100 
      M120,120 
      C120,120 280,120 280,120 
      C280,120 280,280 280,280 
      C280,280 120,280 120,280 
      C120,280 120,120 120,120 
      M140,140 
      C140,140 260,140 260,140 
      C260,140 260,260 260,260 
      C260,260 140,260 140,260 
      C140,260 140,140 140,140 
      M160,160 
      C160,160 240,160 240,160 
      C240,160 240,240 240,240 
      C240,240 160,240 160,240 
      C160,240 160,160 160,160 
      M180,180 
      C180,180 220,180 220,180 
      C220,180 220,220 220,220 
      C220,220 180,220 180,220 
      C180,220 180,180 180,180" 
      fill="none" 
      stroke="currentColor" 
      stroke-width="1"/>
  
  <path id="spiral-2" d="M200,200 
      m-75,0 
      a75,75 0 1,0 150,0 
      a75,75 0 1,0 -150,0 
      m10,0 
      a65,65 0 1,0 130,0 
      a65,65 0 1,0 -130,0 
      m10,0 
      a55,55 0 1,0 110,0 
      a55,55 0 1,0 -110,0 
      m10,0 
      a45,45 0 1,0 90,0 
      a45,45 0 1,0 -90,0 
      m10,0 
      a35,35 0 1,0 70,0 
      a35,35 0 1,0 -70,0 
      m10,0 
      a25,25 0 1,0 50,0 
      a25,25 0 1,0 -50,0 
      m10,0 
      a15,15 0 1,0 30,0 
      a15,15 0 1,0 -30,0" 
      fill="none" 
      stroke="currentColor" 
      stroke-width="1"/>
</svg>